/* XPM */
static char *_0635_d15c316a401b84128500417d1cab13341a407cfe6579e560739a811bfd37986e[] = {
/* columns rows colors chars-per-pixel */
"48 48 91 1 ",
"  c #8E8E8E",
". c #8F8E8E",
"X c #8E8F8E",
"o c #8E8E8F",
"O c #939392",
"+ c #939293",
"@ c #929393",
"# c #939393",
"$ c gray61",
"% c #9C9C9D",
"& c #9D9C9D",
"* c #9C9D9D",
"= c gray62",
"- c #9E9E9F",
"; c #9F9E9F",
": c #9E9F9F",
"> c #9F9EA0",
", c #9E9FA0",
"< c #9F9FA0",
"1 c #A1A0A2",
"2 c #A0A1A2",
"3 c #A1A1A2",
"4 c #A1A1A3",
"5 c #A2A2A2",
"6 c #A3A2A2",
"7 c #A2A2A3",
"8 c #A3A2A3",
"9 c #A2A3A3",
"0 c #A4A4A5",
"q c #A4A5A5",
"w c #A4A5A7",
"e c #A5A5A7",
"r c gray65",
"t c #A7A7A6",
"y c #A6A6A7",
"u c #A7A6A7",
"i c #A6A7A7",
"p c #A7A7A7",
"a c #A7A6A8",
"s c #A7A7A8",
"d c gray66",
"f c #A9A8A8",
"g c #A8A9A8",
"h c #A8A8A9",
"j c #A9A8A9",
"k c #A9A9AA",
"l c #A9A8AB",
"z c #A8A9AB",
"x c #A9A9AB",
"c c #AAAAAA",
"v c #AAAAAB",
"b c #ABAAAB",
"n c #AAABAB",
"m c #ABAAAC",
"M c #AAABAC",
"N c #ABABAC",
"B c #ACACAE",
"V c #ADACAE",
"C c #ACADAE",
"Z c #ADADAE",
"A c #ACACAF",
"S c #ADADAF",
"D c #AEAEAE",
"F c #AFAEAE",
"G c #AEAFAE",
"H c #AEAEAF",
"J c #BBBABC",
"K c #BABBBC",
"L c #BBBBBC",
"P c #BBBBBD",
"I c gray",
"U c #BEBEBF",
"Y c #BFBEBF",
"T c #BEBFBF",
"R c #C0C0C0",
"E c #C0C1C0",
"W c #C0C0C1",
"Q c #C1C0C1",
"! c #C0C1C1",
"~ c #C1C0C2",
"^ c #C1C1C2",
"/ c #C2C2C3",
"( c gray77",
") c #C4C4C5",
"_ c #C5C4C5",
"` c #C4C5C5",
"' c #C4C4C6",
"] c #C4C4C7",
"[ c #C7C7C8",
"{ c #CCCCCE",
"} c #CDCCCE",
/* pixels */
"333xxxZVZ@##yyyuyyyyy###eee777yyy###233zxk775###",
"234xxxZZZ@##yyyyyyyyy###wee777yiy##O333xlk877###",
"334xlxCVZ###yyyyyyuyr###eee777yyy###334xxx777@##",
"ZZZxxx334###313yyy777##O895jhh777###777yir333@##",
"ZZSxxx313##O334yiy777###797hhd877@##777yiy233###",
"ZZZxlx333#+#213yyy797###797hhh777##O797yiy313#+#",
"   . o   ###333xxx795@##         @##yyyZZZ<<<###",
" Xo  o   ###213xxx797###        o#+OyyyCZZ,<<@+#",
"         @##333zxx777#+O         @#OuirZZZ<<<###",
"333xxx777#+#797yyy313###-:-hhh---###uyyBBB313###",
"333xxk895@##775uyy333###---hhh;--###uyrVBB333###",
"333xxx777###777yyy333@#O---hhd;--@#OyyyVBA333###",
"777yyr213@#OyyyZZZ,<<##OyyyBCBsss@##0q0NNN775###",
"777yiy333###yyyZZS<<<###uyrBBAsss#+#000NNN797###",
"777yyy334#+#yyyZZZ<<<##OyyyBBAsas###000MNN777###",
"yyrZVZ<<<###yyyBBA333##Oyyypptppp@+#yiyyyyipt#+#",
"yyyZZZ<><#+OyyyBCB233###yyypppppp###yiyyyyppp#+#",
"yyyZZZ,><###yiyBBB333###yiypppppp##Oyyyyyypup@##",
"yyy777333###333;--877#+#233yyy877##O895uir875###",
"uyy797333##O333---797#+#334yyy777###775uyy777##O",
"yyr877233###333-:-777@+#333yyy777##O777uyy777###",
"0q0NmN797#+#333;--LLPDDDUUULLLW!WDGHWWW_))WWWDDH",
"0q0NNN775###233---KLLDDHUUULLLQWWDGDW!W)))QWWDDD",
"000NNN877###333--=LLPDGDUUULLLQWWDDDWWR)))Q!WFDD",
"yyyyyyppp##O------UUUDDDLJLLJPWWWDDDW!R_`)WWRDDD",
"yyyuyyput@+#-:----UTUDDDLLLKLLWWRFDDQWW)`)WWRDGD",
"yyryyyppt@##-:----UUUFDDLLPKLLWWWDDDWWW)))QWWDDD",
"897yyy777###334--=///DDDUUULLPLLLDDHW!R))()))DDH",
"777yyy797##O233---///DGDUUULLLLLLDDDWWW))))))DDH",
"777yir777##O333---///DDDUUULLLLJLDDDWWW)))))(FDD",
"777777777@#O333vnv'']DDHUTILLP)))DGDWWW))))))DGD",
"795777777##O333bvv'''FDDUUULLL))(DDDWWW))))))DDH",
"777777775###313vvc'''DDDUUULLL)))DGDWWW))(_)(DDD",
"775yyy777#+#&%%657LJLDDDUUU))))))DDDWWRLJL)`)DDH",
"795uyr775###%*$555LLLDDDUUU_)))))DDDW!WLLL)))DGD",
"895yyy877###%%%555LLLDGDUUU_`))))DGHWWRKLL)`)DDD",
"yyyyyyipp@##     odddDDDWWW)))QWWDDDdddfdddddDDH",
"uyyyyyppp@##  o   dddDDHWWW)))QWRFDDddddddddhDDH",
"yyyyyyppp### Xo   dddDGDWWW_))QWWDDHdgdddddgdDDD",
"797yyy777@##333yiyQWWDDDWWR)))W!WDDDYUU[[[QWWDDD",
"877yyr795###333yyyWWRDGDWWW)))WWRDGDUTI[[[QWWDDD",
"877yyy777###333uyyWWWDDDQWW)))W!WDDHUUU[[[WWWDGD",
"777uyy775@+O333xxxW!WFDH))))))W!WDDDKLLLLLUUUDDH",
"775yyy777###233zlxWWWDGD)`))`)W!WDDDLLLLLLUUUDGD",
"775yyr877###333xxxW!WDGD_`))))WWWFDDKLLLLLYUUDDD",
"777yiy777##O775yyyUUUDDDRRR}{{^~^FGDYUUUUUWWWDDD",
"777uyy897##O777yyyUUUDDDRER{{{^^^DDDYUUUUIW!RDDH",
"777yyy777@##877yyyUUUDDDRRW{{{^^^DDDUUIUUUQWWFDD"
};
