/* XPM */
static char *_7896_2dccaa7f92874fee98df38a5f5365087331249175cdb8b3f82a2e025e28d8eac[] = {
/* columns rows colors chars-per-pixel */
"48 48 89 1 ",
"  c #9D9D9C",
". c #9D9C9D",
"X c #9C9D9D",
"o c #9D9D9D",
"O c gray62",
"+ c #9F9E9E",
"@ c #9E9F9E",
"# c #9F9F9E",
"$ c #9E9E9F",
"% c #9F9E9F",
"& c #9E9F9F",
"* c #9F9F9F",
"= c #A0A0A0",
"- c #A1A0A0",
"; c #A0A1A0",
": c #A1A1A0",
"> c #A0A0A1",
", c #A1A0A1",
"< c #A0A1A1",
"1 c gray63",
"2 c #A2A2A2",
"3 c #A3A2A2",
"4 c #A2A3A2",
"5 c #A3A3A2",
"6 c #A2A2A3",
"7 c #A3A2A3",
"8 c #A2A3A3",
"9 c gray64",
"0 c #A4A4A4",
"q c #A4A4A5",
"w c gray65",
"e c #A6A7A6",
"r c #A6A6A7",
"t c gray66",
"y c #A8A9A8",
"u c #A9A9A8",
"i c #A8A8A9",
"p c #A9A8A9",
"a c #A9A9A9",
"s c #AEAEAE",
"d c #AFAEAE",
"f c #AEAFAE",
"g c #AFAFAE",
"h c #AEAEAF",
"j c #AEAFAF",
"k c #AFAFAF",
"l c gray69",
"z c #B1B0B0",
"x c #B0B1B0",
"c c #B1B1B0",
"v c #B0B0B1",
"b c #B1B0B1",
"n c #B0B1B1",
"m c #B1B1B1",
"M c #B2B2B2",
"N c #B3B2B2",
"B c #B2B3B2",
"V c #B3B3B2",
"C c #B2B2B3",
"Z c #B3B2B3",
"A c #B2B3B3",
"S c gray70",
"D c #B4B4B4",
"F c #B5B4B4",
"G c #B4B5B4",
"H c #B4B4B5",
"J c #B5B4B5",
"K c gray71",
"L c #B7B7B6",
"P c #B7B6B7",
"I c #B6B7B7",
"U c #B7B7B7",
"Y c gray72",
"T c #B9B8B8",
"R c #B8B9B8",
"E c #B9B9B9",
"W c gray",
"Q c #BFBEBE",
"! c #BEBFBE",
"~ c #BFBFBE",
"^ c #BEBEBF",
"/ c #BFBEBF",
"( c #BEBFBF",
") c gray75",
"_ c #C1C1C1",
"` c #CBCBCA",
"' c #CBCACB",
"] c #CACBCB",
"[ c #CBCBCB",
/* pixels */
"***-=======>==>===mmmmmmmbmmmmmmmmmmmmmmmmlxl[[[",
"***===-========-;=mbmmmmmbmmmmnbmmmmnmmmmmlxl[[[",
"***======-==-=====mmcnbcmbmmmmnmcnmmmmmnmmlll[[[",
"**#=;=====;=======mmmmmmmbmmmmmbmmmmmbcnmmzlv[[`",
"&**===-;>=;=======mmmmmcmbcmmcmmmmmmmmmmbmlll[[[",
"&**====;========;=nmcmmmmmmmmcmmmmbmmmcnmcllv[[[",
"1,1999995999999999DDDDDDFDDFGDDDDFDDDDDDDDMMC())",
"11:999999875999999DGDDDHDDDFDHDGDDDDDDDDDDMMM)))",
"111999999999999975DDDDDDDDDDDHDDDFDDDDDDDDNMM)))",
"===222322222242222SSSSSSSSSSSSSSSSSVAZSSSSmmmYYY",
"=;=222226322222222SSSSSSSSSSSSSSSSSSASSSSSmbmYYY",
"-==322222222322222ASSSSSSSSASSSZSSSSAZSSSSmmcYYY",
"==>322111995979899DDHDDDDDDDDHFDHDDHDDDDDDMBM)))",
"-==222<11899995999FDDDDDDDDDDDDDHDDDDGDDDDMMM)))",
"===242111999999999DDHFDHDDDDDDDDDDDDFDDDDDMMM)))",
"+@O*********===-=>mmcmmmmmmmmmmmmmmmmmclllkkk))~",
"OO$**#*%*&**=;====mmmnmmmmmmbmmmmnmmmbclllkkg)))",
"OOO****%****======mmmmmmmmmmmmmmmmbmmmmlxljkk)))",
"**#<1111:1111,1111MMCNMMMMMMMMMMMMMMMMCMMMlll[[[",
"**#111111111111111MMMMMCMBMMMMMMMNMMMMMMMMzll][[",
"&**11111111:<111,1MMMMBMMMCMMCMMCMBMMMMMMMlll['[",
"***============-==mmmmmmmbmmmmmmmnmmmbcmmmlll[[[",
"**#=======;>======mbmmbmmbcmmmnmmmmmmbmmbmllv][[",
"***=;==;==;=-=>===mmmmmmnmmmbmmbmnmcmbmmmmlxv][[",
"ooooooXoooo XooooosssssssfhdsssshMMMNMMMMMzll[[[",
"oooooooooo. XooooossssssdssssssssMMMMMMMMMlxl[[`",
"XooooooooooooooooosshssssssssssssNMMMMMMMMlll[[[",
"*%*===============mmmmmcmmmMMMMMMNMMMMMMMMMBM[[[",
"***======-======;>nmmnmmmmmMMMMMMMMMMBCNMMMMM[[[",
"&%*===-==========>mmmmmmmmmMMMMMCMMMMMMMMMMMM[[[",
"1119998791111,1=;=mmmzllsssmmmmmmmmmmmmmmmmmm['[",
"1119799991,1111===mmmllldssmbmmmmmmcmmmmmmmbm[[[",
"11:87989911111:===mmclllsssmmmmmmmmmmmmmmmmmm[[[",
"***===-=>=========mmmmmmdssssssssdsssssssssss___",
"***-========-=>=;=mmmnmcssssfsssssfssfsssssss___",
"&**-=>=========-==nmmmmmssssshsssssssssdssdss___",
"*%*111111111<11111MMMMMMMMMmmmmmmnmmnbmmmmmmcTRY",
"***1111111,111:11:MBMMMMNMMmmmnmmmmcmmmmmcmbcYRY",
"***111111111111111MBMNMMMMMmmmmmcmmcmmmnmmmmmTRY",
"111999899995999999FDDDDDFGDDDDDDDDDDDDHDDDMMM)))",
"<,1979999999999999DDDDDDDGHDDDDDHDDDDGDDDDMMM)/)",
"<,1875875999999995DDDFDDDDDDDDDDDDGDDDDDDHMMM)))",
"111999999999899995DDDDDDDDDDDDDGDDGDDDDDDDMMMQ!^",
"11:899999995979999DGHFDDDDDDDDDDDFDHFDHDDDNMMW!W",
"<1:895995999995999DDDFDDDDDDGDDDDDDDDDDFDDMMMWWW",
"TYYYYYaautytwew000KKKIUUUUUEEEUUUFDDDDD)/)[[[][`",
"TYYTYYapattiwwr00qKKKUPUUUUEEEIULDGDDDH)))[[[][[",
"TYYTYYaputtiwwr000KJKUULUUUEEEUUUFDDDDD)))[[[[[["
};
