/* XPM */
static char *_4413_87bff945075c622fba3b2a2ac70817e72d8323f7e91f286a3aa013541a9e42a1[] = {
/* columns rows colors chars-per-pixel */
"48 48 79 1 ",
"  c gray62",
". c #9F9E9E",
"X c #9E9F9E",
"o c #9F9F9E",
"O c #9E9E9F",
"+ c #9F9E9F",
"@ c #9E9F9F",
"# c #9F9F9F",
"$ c #A0A0A0",
"% c #A1A0A0",
"& c #A0A1A0",
"* c #A1A1A0",
"= c #A0A0A1",
"- c #A1A0A1",
"; c #A0A1A1",
": c gray63",
"> c #A2A2A2",
", c #A3A2A2",
"< c #A2A3A2",
"1 c #A3A3A2",
"2 c #A2A2A3",
"3 c #A3A2A3",
"4 c #A2A3A3",
"5 c gray64",
"6 c gray65",
"7 c #ADADAC",
"8 c #ACADAD",
"9 c gray68",
"0 c #AEAEAE",
"q c #AFAEAE",
"w c #AEAFAE",
"e c #AEAEAF",
"r c gray69",
"t c #B1B0B0",
"y c #B0B1B0",
"u c #B1B1B0",
"i c #B0B0B1",
"p c #B1B0B1",
"a c #B0B1B1",
"s c #B1B1B1",
"d c #B2B2B2",
"f c #B3B2B2",
"g c #B2B3B2",
"h c #B2B2B3",
"j c #B4B4B4",
"k c #B5B4B4",
"l c #B4B5B4",
"z c #B5B5B4",
"x c #B4B4B5",
"c c #B5B4B5",
"v c gray71",
"b c #B7B7B6",
"n c #B6B7B7",
"m c #B7B7B7",
"M c gray72",
"N c #B9B8B8",
"B c #B8B9B8",
"V c #B8B8B9",
"C c #B9B8B9",
"Z c #B9B9B9",
"A c gray73",
"S c #BBBBBA",
"D c #BBBABB",
"F c #BABBBB",
"G c #BBBBBB",
"H c gray",
"J c #BFBEBE",
"K c #BEBEBF",
"L c #BFBEBF",
"P c #BEBFBF",
"I c gray75",
"U c #C1C1C0",
"Y c #C1C0C1",
"T c #C0C1C1",
"R c #C1C1C1",
"E c #CBCBCA",
"W c #CBCACB",
"Q c #CACBCB",
"! c #CBCBCB",
/* pixels */
"###$$$$$$$$$$$$$$$$$$%&$$$$$$$$&$$$$$$$$$$###MMM",
"@##$$$$$$$$$$$=$$$$$$$$$%$$$$=$$$%$$$$$$$$###NMM",
"##o$&$$$$%&$$$$$$$$$$%$$$$$$$$$$$$$$$$$$&$###MMM",
"#+#$$$$$$$$$$$$$$=$$$$$$$$$$$$$$$$$$$$$$$$###NBM",
"#+o$$$$$$$&$$$=$$$$$$$$$$$$$$$$&$$$=%$$$$$##oNMM",
"###%$$$&$$$$$$$%$$$$$$$$$$$$$$$$$$$$$$=%$$###NBM",
"::*531555535555555555455455555535555535551:::999",
"::*551455535555455535455435555455555455555::*999",
":::555435555551551535551551555555435555555:::997",
"%$=,>>>>2>>>>>2>>>,>>>>>><>>>>>>>>>>>>>>>>$$$666",
"%&$>>>>>>>>>>>2>>>,>>>>>>>2>>2>>2>>>>>>>>>$$$666",
"$$$>>>>>>><>><>>>>>>>>>>>>2,>>>>>,<>>>>>>>$$$666",
"$&$>>>:::555555555555455551555555555535535:::999",
"$$$>>>:::555555555555535555555555535555535:-:999",
"%$$>>>::*531551551455555551535455535455555:::899",
".  ###@#####%$$$$$$$$%$$%$$%$$$$$$$$$$$#+o   999",
"   @#o######$&$$$$$$=%$=$&$$$$$$$$$$$$=### X 997",
"  O#########$&$$$$$$$$$$%$$$$$$$$$$$$&$##o   999",
"@##:::;:::::::*;::;:::::::::-::::::::::;::###MMM",
"###:::::::::::*:::;:*::*::::::;::;::::::::###MBM",
"@##:::::::-:::*:-*:::::::-::::::::::::::::###MMM",
"trrssssssspssssassasussusssssussuassssssssrrr!!!",
"rriapuspuasssssasssssassspsssssssssuassassrrrQ!!",
"rrrsssassssssssssssssssssssssssssssssssspurrr!!!",
"00000e0000000000000000000w0000q00ddddddddhtrrQ!!",
"000000q000w000000000e000000000000dddfdddddrrr!!!",
"000q0000000e00000eq0e0w0000000000ddddddfddrrr!!E",
"rrrsssspsspssssssusssssusssfdddddddhdddddddddQ!E",
"ryrsssapsspsssssssassasuassfddddddddddddddfdd!!!",
"trrssussuassspsspsssssssspuddddghfddddddddddd!!!",
"dddjjjjjjddddgdspsassryr000sssssssssspssssssu!W!",
"fgdjjjjlxddddddssussurrr000ssssssassssssssssu!!!",
"dgdjjxkjjddddddspssssrri000sssspuspsssssssssu!!!",
"trrasussssssssssssspssss0w00000w000e00e00000eRYU",
"rrrsssssussssssssussssssq0000e0we00e0000w0000RRR",
"trispussssssssssssssusps000q00q00000000000000TYR",
"rrrdddddddddddddddfddddhdddasssssasusssssssssNBV",
"rrrfdddddddddddfdddgdddhdddspssssapuspuspsassNMV",
"rriddddddfdddddddddddfddfddapsssussssssapsssuMBM",
"dgdkljjjjjjxjjjjjjjjjkjjjjjjljjjxjjjjjjjjjdddPLI",
"dddjjjjlxjjjjjxjljjjjjjjjljjjjjjjjjjjjxjjjfddPII",
"dddjjjjjjjjjjjjjjjklxjjjjjjjjxjjjjjxjljjjjddhIII",
"ddhjjjjljjjjjjjjljjjjjjjjjjjlxjjxjjjjjjkljfddJHH",
"dddjlxjjjjjjkjjjljjljjjjkjjjjjjjjjjjjjjjjjdddHHK",
"fddjjxkljjjxjjjjjxjljjjjjjjjljjjjjjjklxjjxdddHHH",
"!W!!!!GGSAAAMBMvczvczmmmmmmZCZnmmjljkjjIII!!!!!E",
"!!!!!!FDGAAAMMMvvvvcvmmmmmmZZZmmmjjjkjjIII!!!Q!E",
"Q!!!!EGGGAAAMMMvvvvvvmmmmmbZZZmmmjjjjjjIIIQW!!!!"
};
