/* XPM */
static char *_2201_43a0f6d1b37a5678a166abcd6af7ecd1b36d148c098758018d7212a59129b711[] = {
/* columns rows colors chars-per-pixel */
"48 48 49 1 ",
"  c #AEAEAE",
". c #AFAEAE",
"X c #AEAFAE",
"o c #AEAEAF",
"O c #AFAFAF",
"+ c gray69",
"@ c #B1B0B0",
"# c #B0B1B0",
"$ c #B1B1B0",
"% c #B0B0B1",
"& c #B1B0B1",
"* c #B0B1B1",
"= c #B1B1B1",
"- c #B2B2B2",
"; c #B3B2B2",
": c #B2B3B2",
"> c #B3B3B2",
", c #B2B2B3",
"< c #B3B2B3",
"1 c #B2B3B3",
"2 c gray70",
"3 c #B4B4B4",
"4 c #B5B4B4",
"5 c #B4B5B4",
"6 c #B5B5B4",
"7 c #B4B4B5",
"8 c #B5B4B5",
"9 c #B4B5B5",
"0 c gray71",
"q c #B6B7B7",
"w c #B7B7B7",
"e c gray72",
"r c #B8B9B8",
"t c #B9B9B9",
"y c gray73",
"u c #BABABB",
"i c #BBBBBB",
"p c gray",
"a c #BEBFBE",
"s c #BFBFBE",
"d c #BFBEBF",
"f c #BEBFBF",
"g c gray75",
"h c #C0C1C1",
"j c #C1C1C1",
"k c #CBCBCA",
"l c #CBCACB",
"z c #CACBCB",
"x c #CBCBCB",
/* pixels */
"+++==========&==================$==$====&=@++xxx",
"+++===========$*=$===*&===$=&===$=========+#+xxk",
"+++========$=====$==$=&=======*========*==+++xxx",
"+++==$==$===*&=*=$===*===&====*=======$==$@#+xxx",
"+++*======&========&========&$=======&$==$+++xxx",
"++%*==*=====*================$=====$======++%xxx",
"---353333333333337337333337333333333337337-:-ggg",
"---333337353333433333333333333453333337333-:,ggg",
"-:-353353337333333333333353333433333333433---gdg",
"===22222222222222>12222222>12222>22222222>*=$eee",
"===12>1222222222<22221222<22222222222<222>==$eee",
"*&=2222<21<222222>22>1222222<21222222<22<2*==eee",
"===122--,333437333433333333333333433333337--,gds",
"===22>-:-337337333353333353453433353337433;--ggg",
"===12>---353353333353433433357433333337353---ggg",
"OOO@+++++@+%===*====$=========*&====*==+++OOOfgg",
"OOO++++++++%===*====$=&=*=$==$===*==*==+++OOOgdg",
"OOO+#+@+%+#+=====================*=$==$+#%OOOgdg",
"+++-----,;---------:--------:--------:---,+++zxx",
"+++-----------------,--------,-:---------,++%xxx",
"+++----------------:,;:---------,--,------+++xxx",
"+#+==========================$===========$+++xxx",
"+#+===========$===*===&=====&=====&======$+++xlk",
"+++=====$===*==*=$=&$*========*==*=$=====$+++xxx",
"  o  o       X  X .       o  o   ------;--+++zlx",
"              o           o      -----,--,@#+xlk",
". o                 o  o   .     ---------@++xxk",
"+++===*==*=$*===&==&=======----:---,-:-------xxx",
"+++==========&===$===*=$===;:-;:,--,---;-,---xxx",
"@++=================$===*==-:------,-:-;-----zxx",
"---333353----:-==$===++%   ==$=&======$==$===xlx",
"---333337-----,====&=+#+.  *=$==$*=====*=====xxx",
"---333333--,---=&===$+#+ X ====&==&=====&==&$xxk",
"++%==$==$=========*=====   .    o      .     jjj",
"+++=====================                     jjj",
"@++=================$===   .   X          . ohjj",
"++%---;-,-:-;:,;--;-,------==========&======$ere",
"+++---;--;----,------------==========&=*====$ere",
"+++;-----------------------*&====*&==========eee",
"---333433333333433353437337337453357433353-:,fdg",
"---333333333353333433333333333333333337353-:-ggg",
";--333333333333333333453333333333457353437---ggg",
"---333353333353333333333337433333333353337---pap",
"---353333333333333333337353333333453333433--,pap",
"-:,337333433333333433333333353333353433333;--ppp",
"xxxxxkiiiyyueee000906wwwwwwtttwww333433gggxlxxlx",
"zlxxxxiiiyyyeee006000wwwwwwtttqww433333ggsxxxxxk",
"xxkxxxiiiyyyere080000wwwwwwtttwww353433gggxxxxxx"
};
