/* XPM */
static char *da03132d8ed741dc99a7ca6ca32355c52P23PYp9f0cZZB9A[] = {
/* columns rows colors chars-per-pixel */
"48 48 9 1 ",
"  c #3A3A50",
". c #665A4E",
"X c #796C5F",
"o c #817767",
"O c #8B8173",
"+ c #9B8B7F",
"@ c #A99C8D",
"# c #A89D95",
"$ c #AEA697",
/* pixels */
"   +++###@@@###ooo@@@+++@@@+++@@@+++###ooo$$$+++",
"   +++###@@@###ooo@@@+++@@@+++@@@+++###ooo$$$+++",
"   +++###@@@###ooo@@@+++@@@+++@@@+++###ooo$$$+++",
"   @@@+++###@@@oooOOO@@@+++@@@@@@###+++ooo+++@@@",
"   @@@+++###@@@oooOOO@@@+++@@@@@@###+++ooo+++@@@",
"   @@@+++###@@@oooOOO@@@+++@@@@@@###+++ooo+++@@@",
"   XXXXXXXXXXXXXXXXXXXXXXXXXXXXXXXXXXXXXXXXXXXXX",
"   XXXXXXXXXXXXXXXXXXXXXXXXXXXXXXXXXXXXXXXXXXXXX",
"   XXXXXXXXXXXXXXXXXXXXXXXXXXXXXXXXXXXXXXXXXXXXX",
"   oooOOO@@@+++@@@@@@@@@+++ooo+++@@@+++@@@+++###",
"   oooOOO@@@+++@@@@@@@@@+++ooo+++@@@+++@@@+++###",
"   oooOOO@@@+++@@@@@@@@@+++ooo+++@@@+++@@@+++###",
"   ooo@@@@@@###+++@@@+++@@@ooo@@@+++###@@@###@@@",
"   ooo@@@@@@###+++@@@+++@@@ooo@@@+++###@@@###@@@",
"   ooo@@@@@@###+++@@@+++@@@ooo@@@+++###@@@###@@@",
"   ooo+++@@@@@@@@@@@@###+++OOO+++@@@OOO@@@+++###",
"   ooo+++@@@@@@@@@@@@###+++OOO+++@@@OOO@@@+++###",
"   ooo+++@@@@@@@@@@@@###+++OOO+++@@@OOO@@@+++###",
"   XXXXXXXXXXXXXXXXXXXXXoooooooooXXXXXXXXXXXXXXX",
"   XXXXXXXXXXXXXXXXXXXXXoooooooooXXXXXXXXXXXXXXX",
"   XXXXXXXXXXXXXXXXXXXXXoooooooooXXXXXXXXXXXXXXX",
"   @@@+++@@@+++ooo+++$$$+++@@@OOO@@@+++ooo+++OOO",
"   @@@+++@@@+++ooo+++$$$+++@@@OOO@@@+++ooo+++OOO",
"   @@@+++@@@+++ooo+++$$$+++@@@OOO@@@+++ooo+++OOO",
"   @@@###+++@@@ooo@@@+++@@@@@@@@@+++@@@ooo@@@+++",
"   @@@###+++@@@ooo@@@+++@@@@@@@@@+++@@@ooo@@@+++",
"   @@@###+++@@@ooo@@@+++@@@@@@@@@+++@@@ooo@@@+++",
"   @@@+++###+++oooOOO@@@+++@@@+++@@@+++ooo+++@@@",
"   @@@+++###+++oooOOO@@@+++@@@+++@@@+++ooo+++@@@",
"   @@@+++###+++oooOOO@@@+++@@@+++@@@+++ooo+++@@@",
"   XXXXXXXXXXXXXXXXXXXXXXXXXXXXXXXXXXXXXXXXXXXXX",
"   XXXXXXXXXXXXXXXXXXXXXXXXXXXXXXXXXXXXXXXXXXXXX",
"   XXXXXXXXXXXXXXXXXXXXXXXXXXXXXXXXXXXXXXXXXXXXX",
"   oooOOO$$$@@@@@@+++@@@OOOooo+++$$$+++OOO+++@@@",
"   oooOOO$$$@@@@@@+++@@@OOOooo+++$$$+++OOO+++@@@",
"   oooOOO$$$@@@@@@+++@@@OOOooo+++$$$+++OOO+++@@@",
"   ooo###+++@@@+++###@@@@@@ooo@@@+++@@@+++@@@+++",
"   ooo###+++@@@+++###@@@@@@ooo@@@+++@@@+++@@@+++",
"   ooo###+++@@@+++###@@@@@@ooo@@@+++@@@+++@@@+++",
"   ooo+++@@@@@@###+++@@@+++ooo+++@@@+++@@@+++@@@",
"   ooo+++@@@@@@###+++@@@+++ooo+++@@@+++@@@+++@@@",
"   ooo+++@@@@@@###+++@@@+++ooo+++@@@+++@@@+++@@@",
"   .............................................",
"   .............................................",
"   .............................................",
"                                                ",
"                                                ",
"                                                "
};
