/* XPM */
static char *_w8ZSrZLiKp00LRLutqGEYu8aGS_output[] = {
/* columns rows colors chars-per-pixel */
"48 48 13 1 ",
"  c None",
". c #3A3A50",
"X c #3B3A50",
"o c #3A3B50",
"O c #3A3A51",
"+ c #46465E",
"@ c #47465E",
"# c #46475E",
"$ c #46465F",
"% c #F8F8F8",
"& c #F9F8F8",
"* c #F8F9F8",
"= c #F8F8F9",
/* pixels */
"XXXXXXXXXXXXXXXXXXXXXXXXXXXXXXXXXXXXXXXXXXXXXXXX",
"XXXXXXXXXXXXXXXXXXXXXXXXXXXXXXXXXXXXXXXXXXXXXXXX",
"XXXXXXXXXXXXXXXXXXXXXXXXXXXXXXXXXXXXXXXXXXXXXXXX",
"XXX%%%%%%%%%%%%%%%%%%%%%%%%%%%%%%%%%%%%%%%%%%%%%",
"XXX%%%%%%%%%%%%%%%%%%%%%%%%%%%%%%%%%%%%%%%%%%%%%",
"XXX%%%%%%%%%%%%%%%%%%%%%%%%%%%%%%%%%%%%%%%%%%%%%",
"XXX%%%%%%%%%%%%%%%%%%%%%%%%%%%%%%%%%%%%%%%%%%%%%",
"XXX%%%%%%%%%%%%%%%%%%%%%%%%%%%%%%%%%%%%%%%%%%%%%",
"XXX%%%%%%%%%%%%%%%%%%%%%%%%%%%%%%%%%%%%%%%%%%%%%",
"XXX%%%%%%%%%%%%%%%%%%%%%%%%%%%%%%%%%%%%%%%%%%%%%",
"XXX%%%%%%%%%%%%%%%%%%%%%%%%%%%%%%%%%%%%%%%%%%%%%",
"XXX%%%%%%%%%%%%%%%%%%%%%%%%%%%%%%%%%%%%%%%%%%%%%",
"XXX%%%%%%%%%%%%%%%%%%%%%%%%%%%%%%%%%%%%%%%%%%%%%",
"XXX%%%%%%%%%%%%%%%%%%%%%%%%%%%%%%%%%%%%%%%%%%%%%",
"XXX%%%%%%%%%%%%%%%%%%%%%%%%%%%%%%%%%%%%%%%%%%%%%",
"XXX%%%%%%%%%%%%%%%++++++++++++++++++++++++++++++",
"XXX%%%%%%%%%%%%%%%++++++++++++++++++++++++++++++",
"XXX%%%%%%%%%%%%%%%++++++++++++++++++++++++++++++",
"XXX%%%%%%%%%%%%%%%+++                           ",
"XXX%%%%%%%%%%%%%%%+++                           ",
"XXX%%%%%%%%%%%%%%%+++                           ",
"XXX%%%%%%%%%%%%%%%+++                           ",
"XXX%%%%%%%%%%%%%%%+++                           ",
"XXX%%%%%%%%%%%%%%%+++                           ",
"XXX%%%%%%%%%%%%%%%+++                           ",
"XXX%%%%%%%%%%%%%%%+++                           ",
"XXX%%%%%%%%%%%%%%%+++                           ",
"XXX%%%%%%%%%%%%%%%+++                           ",
"XXX%%%%%%%%%%%%%%%+++                           ",
"XXX%%%%%%%%%%%%%%%+++                           ",
"XXX%%%%%%%%%%%%%%%+++                           ",
"XXX%%%%%%%%%%%%%%%+++                           ",
"XXX%%%%%%%%%%%%%%%+++                           ",
"XXX%%%%%%%%%%%%%%%+++                           ",
"XXX%%%%%%%%%%%%%%%+++                           ",
"XXX%%%%%%%%%%%%%%%+++                           ",
"XXX%%%%%%%%%%%%%%%+++                           ",
"XXX%%%%%%%%%%%%%%%+++                           ",
"XXX%%%%%%%%%%%%%%%+++                           ",
"XXX%%%%%%%%%%%%%%%+++                           ",
"XXX%%%%%%%%%%%%%%%+++                           ",
"XXX%%%%%%%%%%%%%%%+++                           ",
"XXX%%%%%%%%%%%%%%%+++                           ",
"XXX%%%%%%%%%%%%%%%+++                           ",
"XXX%%%%%%%%%%%%%%%+++                           ",
"XXX%%%%%%%%%%%%%%%+++                           ",
"XXX%%%%%%%%%%%%%%%+++                           ",
"XXX%%%%%%%%%%%%%%%+++                           "
};
