/* XPM */
static char *_fd880dbac9c4faeff31feccf56a81c3NKpNO0AjhKP1CTb2[] = {
/* columns rows colors chars-per-pixel */
"48 48 8 1 ",
"  c #3A3A50",
". c #796C5F",
"X c #817767",
"o c #8B8173",
"O c #9B8B7F",
"+ c #A99C8D",
"@ c #A89D95",
"# c #AFA697",
/* pixels */
"   OOO@@@+++@@@XXX+++OOO+++OOO+++OOO@@@XXX###OOO",
"   OOO@@@+++@@@XXX+++OOO+++OOO+++OOO@@@XXX###OOO",
"   OOO@@@+++@@@XXX+++OOO+++OOO+++OOO@@@XXX###OOO",
"   +++OOO@@@+++XXXooo+++OOO++++++@@@OOOXXXOOO+++",
"   +++OOO@@@+++XXXooo+++OOO++++++@@@OOOXXXOOO+++",
"   +++OOO@@@+++XXXooo+++OOO++++++@@@OOOXXXOOO+++",
"   .............................................",
"   .............................................",
"   .............................................",
"   XXXooo+++OOO+++++++++OOOXXXOOO+++OOO+++OOO@@@",
"   XXXooo+++OOO+++++++++OOOXXXOOO+++OOO+++OOO@@@",
"   XXXooo+++OOO+++++++++OOOXXXOOO+++OOO+++OOO@@@",
"   XXX++++++@@@OOO+++OOO+++XXX+++OOO@@@+++@@@+++",
"   XXX++++++@@@OOO+++OOO+++XXX+++OOO@@@+++@@@+++",
"   XXX++++++@@@OOO+++OOO+++XXX+++OOO@@@+++@@@+++",
"   XXXOOO++++++++++++@@@OOOoooOOO+++ooo+++OOO@@@",
"   XXXOOO++++++++++++@@@OOOoooOOO+++ooo+++OOO@@@",
"   XXXOOO++++++++++++@@@OOOoooOOO+++ooo+++OOO@@@",
"   .............................................",
"   .............................................",
"   .............................................",
"   ++++++@@@OOOXXXooo+++++++++OOO++++++XXXOOO+++",
"   ++++++@@@OOOXXXooo+++++++++OOO++++++XXXOOO+++",
"   ++++++@@@OOOXXXooo+++++++++OOO++++++XXXOOO+++",
"   OOO++++++@@@XXX+++++++++OOO@@@OOO+++XXX+++OOO",
"   OOO++++++@@@XXX+++++++++OOO@@@OOO+++XXX+++OOO",
"   OOO++++++@@@XXX+++++++++OOO@@@OOO+++XXX+++OOO",
"   oooOOO+++OOOXXXOOO###OOO@@@OOO@@@OOOXXXOOO+++",
"   oooOOO+++OOOXXXOOO###OOO@@@OOO@@@OOOXXXOOO+++",
"   oooOOO+++OOOXXXOOO###OOO@@@OOO@@@OOOXXXOOO+++",
"   .............................................",
"   .............................................",
"   .............................................",
"   XXXOOOOOO+++@@@OOOoooOOOXXXOOO++++++@@@+++@@@",
"   XXXOOOOOO+++@@@OOOoooOOOXXXOOO++++++@@@+++@@@",
"   XXXOOOOOO+++@@@OOOoooOOOXXXOOO++++++@@@+++@@@",
"   XXX+++###OOO+++@@@OOO@@@XXX+++OOO@@@+++@@@OOO",
"   XXX+++###OOO+++@@@OOO@@@XXX+++OOO@@@+++@@@OOO",
"   XXX+++###OOO+++@@@OOO@@@XXX+++OOO@@@+++@@@OOO",
"   XXXOOO@@@+++OOO++++++OOOoooOOO@@@OOO@@@OOO+++",
"   XXXOOO@@@+++OOO++++++OOOoooOOO@@@OOO@@@OOO+++",
"   XXXOOO@@@+++OOO++++++OOOoooOOO@@@OOO@@@OOO+++",
"   .....................XXXXXXXXX...............",
"   .....................XXXXXXXXX...............",
"   .....................XXXXXXXXX...............",
"   +++OOO@@@OOOXXX+++@@@OOO+++OOO+++oooXXXOOO+++",
"   +++OOO@@@OOOXXX+++@@@OOO+++OOO+++oooXXXOOO+++",
"   +++OOO@@@OOOXXX+++@@@OOO+++OOO+++oooXXXOOO+++"
};
