/* XPM */
static char *_2c49a7f357848dadc8bdc05e43c3196ezKRL4YjzM9AtRbM[] = {
/* columns rows colors chars-per-pixel */
"48 48 9 1 ",
"  c #3A3A50",
". c #796C5F",
"X c #817767",
"o c #8A8173",
"O c #9B8B7F",
"+ c #A89C8D",
"@ c #A89D95",
"# c #AEA697",
"$ c #FDFDFD",
/* pixels */
"                                                ",
"                                                ",
"                                                ",
"   $$$$$$$$$$$$$$$$$$$$$$$$$$$$$$$$$$$$$$$$$$$$$",
"   $$$$$$$$$$$$$$$$$$$$$$$$$$$$$$$$$$$$$$$$$$$$$",
"   $$$$$$$$$$$$$$$$$$$$$$$$$$$$$$$$$$$$$$$$$$$$$",
"   $$$$$$$$$$$$$$$$$$$$$$$$$$$$$$$$$$$$$$$$$$$$$",
"   $$$$$$$$$$$$$$$$$$$$$$$$$$$$$$$$$$$$$$$$$$$$$",
"   $$$$$$$$$$$$$$$$$$$$$$$$$$$$$$$$$$$$$$$$$$$$$",
"   $$$$$$$$$$$$$$$$$$$$$$$$$$$$$$$$$$$$$$$$$$$$$",
"   $$$$$$$$$$$$$$$$$$$$$$$$$$$$$$$$$$$$$$$$$$$$$",
"   $$$$$$$$$$$$$$$$$$$$$$$$$$$$$$$$$$$$$$$$$$$$$",
"   $$$$$$$$$$$$$$$$$$$$$$$$$$$$$$$$$$$$$$$$$$$$$",
"   $$$$$$$$$$$$$$$$$$$$$$$$$$$$$$$$$$$$$$$$$$$$$",
"   $$$$$$$$$$$$$$$$$$$$$$$$$$$$$$$$$$$$$$$$$$$$$",
"                                                ",
"                                                ",
"                                                ",
"   .............................................",
"   .............................................",
"   .............................................",
"   ++++++@@@OOOXXXooo+++++++++OOO++++++XXXOOO+++",
"   ++++++@@@OOOXXXooo+++++++++OOO++++++XXXOOO+++",
"   ++++++@@@OOOXXXooo+++++++++OOO++++++XXXOOO+++",
"   OOO++++++@@@XXX+++++++++OOO@@@OOO+++XXX+++OOO",
"   OOO++++++@@@XXX+++++++++OOO@@@OOO+++XXX+++OOO",
"   OOO++++++@@@XXX+++++++++OOO@@@OOO+++XXX+++OOO",
"   oooOOO+++OOOXXXOOO###OOO@@@OOO@@@OOOXXXOOO+++",
"   oooOOO+++OOOXXXOOO###OOO@@@OOO@@@OOOXXXOOO+++",
"   oooOOO+++OOOXXXOOO###OOO@@@OOO@@@OOOXXXOOO+++",
"   .............................................",
"   .............................................",
"   .............................................",
"   XXXOOOOOO+++@@@OOOoooOOOXXXOOO++++++@@@+++@@@",
"   XXXOOOOOO+++@@@OOOoooOOOXXXOOO++++++@@@+++@@@",
"   XXXOOOOOO+++@@@OOOoooOOOXXXOOO++++++@@@+++@@@",
"   XXX+++###OOO+++@@@OOO@@@XXX+++OOO@@@+++@@@OOO",
"   XXX+++###OOO+++@@@OOO@@@XXX+++OOO@@@+++@@@OOO",
"   XXX+++###OOO+++@@@OOO@@@XXX+++OOO@@@+++@@@OOO",
"   XXXOOO@@@+++OOO++++++OOOoooOOO@@@OOO@@@OOO+++",
"   XXXOOO@@@+++OOO++++++OOOoooOOO@@@OOO@@@OOO+++",
"   XXXOOO@@@+++OOO++++++OOOoooOOO@@@OOO@@@OOO+++",
"   .....................XXXXXXXXX...............",
"   .....................XXXXXXXXX...............",
"   .....................XXXXXXXXX...............",
"   +++OOO@@@OOOXXX+++@@@OOO+++OOO+++oooXXXOOO+++",
"   +++OOO@@@OOOXXX+++@@@OOO+++OOO+++oooXXXOOO+++",
"   +++OOO@@@OOOXXX+++@@@OOO+++OOO+++oooXXXOOO+++"
};
