/* XPM */
static char *_6017_205c9472417473834c0f41cbed53d98ccee9f7c0c78d552a662d6e92951b19f3[] = {
/* columns rows colors chars-per-pixel */
"48 48 63 1 ",
"  c gray66",
". c #A9A8A8",
"X c #A8A9A8",
"o c #A8A8A9",
"O c #AEAEAE",
"+ c #AFAEAE",
"@ c #AEAFAE",
"# c #AEAEAF",
"$ c #B9B8BA",
"% c #B9B9BA",
"& c #BBBABC",
"* c #BABBBC",
"= c #BBBBBC",
"- c #BBBBBD",
"; c #BCBCBC",
": c #BCBCBD",
"> c #BDBCBD",
", c gray",
"< c #BEBEBF",
"1 c #BFBEBF",
"2 c #BEBFBF",
"3 c #BFBFC0",
"4 c #C0C0C0",
"5 c #C1C0C0",
"6 c #C0C1C0",
"7 c #C0C0C1",
"8 c #C1C0C1",
"9 c #C0C1C1",
"0 c #C1C1C2",
"q c gray76",
"w c #C2C2C3",
"e c #C3C2C3",
"r c #C3C3C4",
"t c #C3C3C5",
"y c gray77",
"u c #C4C4C5",
"i c #C5C4C5",
"p c #C4C5C5",
"a c #C4C4C6",
"s c #C5C4C6",
"d c #C4C5C6",
"f c #C5C5C6",
"g c #C4C4C7",
"h c #C5C5C7",
"j c #C6C6C7",
"k c #C7C6C8",
"l c #C6C7C8",
"z c #C7C7C8",
"x c #C7C7C9",
"c c #C8C8CA",
"v c #C9C8CA",
"b c #C8C9CA",
"n c #C9C9CA",
"m c #C8C8CB",
"M c #CACACA",
"N c #CACACB",
"B c #CBCACB",
"V c #CCCCCE",
"C c #CDCCCE",
"Z c #CCCDCE",
"A c #CDCDCE",
"S c #CCCCCF",
"D c #CDCDCF",
/* pixels */
"<<<cccAAAOOOuuyuuyuuuOOOttt774uuyOOO<<<cbc894OOO",
"<2<ccmZADOO#uuuuuyupyOOOttt777upyOOO<<<vcm877OOO",
"<<,cccAAAOOOiuuupuuuyOO#ttr774uuu+O#<<,cbm794OOO",
"AAAccc<<<OOO1<<uuu794OOO897zzz877OOO777uuu<<,OO#",
"AAAcbc<<<OOO<<<uuu877OOO777lzx777+O#874uuy<2<+OO",
"AAAccm<<<OOO<<<uuu777OOO777zzz774OOO777iuu<<,+@O",
" X       OOO<<<ccc777OO#.X     X OO#aagAAA>:;OOO",
"         OO#<<<ccc777OOO   . o   OOOsaaACA:::O@O",
"  o. o   OOO<<,ccc777OOO  o. o   OOOaaaZAA::;O@O",
"<<<ccc877OOO774uuu<<<OO#=&=zzz===OO#adaVVV<<,O@O",
"<<<ccc777OOO877uuu<<<OOO===lzz===OOOsaaVVV<<,OOO",
"<<<ccc877OO#797uuu<<,OOO===zzz===OOOaaaVVS<<<OOO",
"794uuu<<<+OOaagZAD:::OOOuuuVZVjjjO@OwwwNNN777OOO",
"774ipy1<<OOOaaaZAA:::OO#upuVVVjjj+O#ewwBNN797+OO",
"777uuu1<<+OOaaaZAA:::+@OuuuVVVjjjOOOwwwNNN797OOO",
"aaaZCA:::OOOaagVVV1<<OOOiuudshffhOOOuuyupudfhOOO",
"aaaAAA>::OOOadaVVV12<OOOuuuffffff+O#uuyuuufffOOO",
"aaaAAA:::O@OaaaVVV<2<OOOupufffdffOOOuuuuuufffOOO",
"aaa7771<<+OO<<<===777+OO<<<iuy877OOO777iuy777OO#",
"aaa877<2<OOO<<<===777OOO<<<uuy774OOO877upu797+O#",
"aaa777<2<OOO<<<===777O@#12<upu777+OO877uuu797OOO",
"wwwBNN777+@O<<<======OOO<2<=&=777O@O777uuy877OOO",
"wwqNNM877OOO<<<===*==+OO<2<==-777OOO877upu777OOO",
"wwqNNN877OO#<<,*==*=-OOO<<,===777O@#797uuu777+OO",
"uuuuuuffh+@O=&==&=12,OOO*===&=777OOO774iuu777OO#",
"uuuiuuffhOO#=&====<<<OOO======874OOO897uuu897OO#",
"uuyuuufffO@O===*&=<<,OOO==-===877OOO777uuu777OO#",
"797uuu777O@O<2<==-www+OO<<<======O@O777iuuuuuO@O",
"777uuu777OOO<2<*==www+O#<<<====&=OO#777uuuuuy+OO",
"777uuu874OO#<<<===ewwOOO<<<======OOO774uuuuuu+OO",
"777777877OOO<2<nvnaaa+OO<<<===uuuO@O797uuuipy+O#",
"877797777+OO<<<nnnaagO@O<<<==-upyOOO777upuuuuOOO",
"777877777OOO<<,nvnadaOO#<<<===uuuO@O777uuuuuuOOO",
"777upu777O@#%%%333=&-OOO<<<uuyuuuO@O777=&=uuu+O#",
"774iuu777OO#%$%333===OOO<<<uuyuuuOOO774===uuuOOO",
"797uuu777O@O%%%333===OOO<2<iuuupu+@O777===uuu+@O",
"uuuuuufffOOO        oOOO774iuu777OOO    Xo   +OO",
"uuuuuufsfOOO         OOO877uuu797OOO         OOO",
"uuuuuufsfOOO X .     OOO797ipy797OOO         +O#",
"777iuu777OOO<<<iuu777OO#874uuu874+O#<<,lzz777O@O",
"774uuu774O@#1<<uuy777+OO777iuy777O@O<<<zzz774O@#",
"797iuu877OOO<<<uuu797OOO777uuy777OOO12<zkz777OOO",
"777iuu877+OO<<<ccm774O@Ouuuupu777OOO*&====1<<OOO",
"797uuu777+OO<2<ccc777OOOuuuupu777O@O*&=*==1<,OOO",
"777uuu774+OO<<<ccc777OO#uuuupy777O@O======<<<+OO",
"777uuy777OOO777uuu<<<O@O564VVV000O@O<<<<<<877OOO",
"777uuy777OOO797iuu<<<OOO447VZV000OOO1<<<2<897O@O",
"877uuu777+OO777uuu<<<OO#564VVV000OOO<<<<<,777OOO"
};
