/* XPM */
static char *_428_fdc4279e52b1489601d229897883f12bb399f0c4b3fb64af93df49c0d8f84a24[] = {
/* columns rows colors chars-per-pixel */
"48 48 61 1 ",
"  c #8E8E8E",
". c #8F8E8E",
"X c #8E8F8E",
"o c #8E8E8F",
"O c #939392",
"+ c #939293",
"@ c #929393",
"# c #939393",
"$ c gray61",
"% c #9C9C9D",
"& c gray62",
"* c #9E9E9F",
"= c #9F9E9F",
"- c #9E9F9F",
"; c #9F9EA0",
": c #9E9FA0",
"> c #9F9FA0",
", c #9F9FA1",
"< c #A1A0A2",
"1 c #A0A1A2",
"2 c #A1A1A2",
"3 c #A1A1A3",
"4 c #A2A2A2",
"5 c #A2A3A2",
"6 c #A2A2A3",
"7 c #A3A2A3",
"8 c #A2A3A3",
"9 c #A3A3A4",
"0 c #A4A4A4",
"q c #A4A4A5",
"w c #A5A4A5",
"e c #A4A5A5",
"r c #A5A5A7",
"t c gray65",
"y c #A7A7A6",
"u c #A6A6A7",
"i c #A7A6A7",
"p c #A6A7A7",
"a c #A7A7A7",
"s c #A7A7A8",
"d c #A7A7A9",
"f c gray66",
"g c #A8A8A9",
"h c #A9A8A9",
"j c #A8A9A9",
"k c #A9A9AA",
"l c #A9A8AB",
"z c #A8A9AB",
"x c #A9A9AB",
"c c #AAAAAA",
"v c #AAAAAB",
"b c #AAABAB",
"n c #ABAAAC",
"m c #AAABAC",
"M c #ABABAC",
"N c #ABABAD",
"B c #ACACAE",
"V c #ADACAE",
"C c #ACADAE",
"Z c #ADADAE",
"A c #ACACAF",
/* pixels */
"222xxxZZZ@##uuuiuuuuu###rrr666iuu#+#2<2xxx666###",
"222zxxZZZ###uuuiutuuu@+#rrr666uuu##O222xxx664###",
"222xlxZZZ###uuuuuuuuu###rrr666uuu###122xxx666@##",
"ZZZzxk223#+O222uuu666###666ggf666##O686uut222###",
"ZZZxxx1<3@##222upu666###666hgg666@+#666iuu2<3###",
"CZZxxk222@##223iuu766##O786hgg666###786uuu222###",
" X    . o###2<2xxx666##O X      o@##uuuZZZ>>>###",
"         ###223xxx766@##         ###uuuZZZ>>>#+#",
"    X   o@##123xxx666###    X   o###upuZZZ>>,#+#",
"222xxk686#+O666uuu222#+O**&ggg=-&##OuptBBB223###",
"1<2xxx664#+#664upu222#+#***ggf***###uuuBBB222###",
"2<2xlx686###666uuu222@##***ggg***@#OuuuVBB222##O",
"666iuu222@#OuuuZVZ>>>#+#upuVBBsss###qqqMMM666###",
"684uuu122###uuuCVZ>;>###uuuBBBssd###qqqmMM666###",
"664upu222###iuuZVZ>;>###uuuBBBssd#+#wqqMMM666###",
"uutZZZ>>>#+#uuuBBB223@##uutaayaaa###uuuuuuaaa###",
"uuuZZZ>>>#+#uuuVBB222###uuuaaaaay@##uuuuuuaay###",
"uutCZZ:>,@#OupuBCB222@##uuuaaaaaa###iuuuuuaaa##O",
"upt766222###222=**764###122uuu664#+#786upu666##O",
"iuu666223#+#2<3*-*686###222iuu666###666upu766###",
"upt766222#+#222=**686@##222uut666@##666iuu664##O",
"qqqMMN686#+#2<2*****&###222*-&766###686iuu784##O",
"qqqMMM684###222****-*###222=**686###666uuu664@##",
"qe0mnN686###222******#+#222=**686###666uuu666@+O",
"uuuuuuaaa###******222###**&***666##O766uuu666@##",
"ipuuuuaia###******222###=****&666###666uuu686###",
"uuuuuuaaa###****-*2<2@##=****&686@##666iuu666#+O",
"686uuu666###122***qqq###223****-*###766uuuuuu@##",
"666uut666##O223***qqq##O2<3******@##664ipuuuu###",
"766uuu664###1<2**&qeq###223*-****###666uutupu#+#",
"666666766###223vvvuuu###122***upu###666iutuuu###",
"666666664###222vbvuuu###223***uuu###764uuuuuu@##",
"664666686###222vbcuuu###222=-*iuu###686uuuupu##O",
"686upu666###%%$454**&@##1<2uutuuu###686***upu###",
"686upu666#+#%%%454*-*###2<2uuuuuu#+#666**&upu##O",
"666uuu666###%%%444***###2<2iuuiuu#+#666=**uuu@##",
"uutuutaaa###         ###786uuu666###         ###",
"iuuuuuaaa#+#     o X ###786uuu664#+# Xo      ##O",
"upuuuuaaa###    X   o###766upu666@+#  o      ###",
"666iuu766@##222upu666###666uuu766##O222ggg686#+#",
"666uut664###222uuu666###666iuu686@##122hgf666###",
"666uuu666###222uut666###666uuu686#+#222gjg666###",
"666iuu664###123xxx666###uutupu666###*-**-*222###",
"666uuu666@##123xxx666###uuuuuu666@##**&***222###",
"666upu666@#O223xlx666###iuuupu666###**&**&122###",
"666uuu766###664uuu222#+#444BCA999###2222<2686###",
"666uuu766#+#766iuu223###444BBB999###222222666###",
"666upt666@+#686iuu222###444BCB999#+O222222764@##"
};
