/* XPM */
static char *_0454_576a257dcab91d2297dd09ec679a8f3d29f8cdea46087ad1f83e632e1543afad[] = {
/* columns rows colors chars-per-pixel */
"48 48 92 1 ",
"  c #8E8E8E",
". c #8F8E8E",
"X c #8E8F8E",
"o c #8E8E8F",
"O c #939392",
"+ c #939293",
"@ c #929393",
"# c #939393",
"$ c gray62",
"% c #9E9E9F",
"& c #9F9E9F",
"* c #9E9F9F",
"= c #9F9EA0",
"- c #9F9FA0",
"; c #A1A0A2",
": c #A0A1A2",
"> c #A1A1A2",
", c #A1A1A3",
"< c #A2A2A2",
"1 c #A2A2A3",
"2 c #A3A2A3",
"3 c #A2A3A3",
"4 c #A4A4A4",
"5 c #A4A4A5",
"6 c #A5A5A7",
"7 c gray65",
"8 c #A7A7A6",
"9 c #A6A6A7",
"0 c #A7A6A7",
"q c #A6A7A7",
"w c #A7A7A7",
"e c #A7A6A8",
"r c #A7A7A8",
"t c gray66",
"y c #A9A8A8",
"u c #A8A9A8",
"i c #A8A8A9",
"p c #A9A8A9",
"a c #A8A9A9",
"s c #A9A8AB",
"d c #A8A9AB",
"f c #A9A9AB",
"g c #ABAAAC",
"h c #ABABAC",
"j c #ACACAE",
"k c #ADACAE",
"l c #ACADAE",
"z c #ADADAE",
"x c #AEAEAE",
"c c #AFAEAE",
"v c #AEAFAE",
"b c #AEAEAF",
"n c #B9B9BA",
"m c #B9B9BB",
"M c #BBBABC",
"N c #BABBBC",
"B c #BBBBBC",
"V c #BBBBBD",
"C c gray",
"Z c #BEBEBF",
"A c #BFBEBF",
"S c #BEBFBF",
"D c #BEBFC0",
"F c #BFBFC0",
"G c #C0C0C0",
"H c #C0C1C0",
"J c #C0C0C1",
"K c #C1C0C1",
"L c #C0C1C1",
"P c #C1C0C2",
"I c #C0C1C2",
"U c #C1C1C2",
"Y c gray76",
"T c #C2C2C3",
"R c #C2C3C3",
"E c gray77",
"W c #C4C4C5",
"Q c #C5C4C5",
"! c #C4C5C5",
"~ c #C4C4C6",
"^ c #C5C5C6",
"/ c #C5C5C7",
"( c #C7C6C8",
") c #C7C7C8",
"_ c #C7C7C9",
"` c #C8C8CA",
"' c #C9C8CA",
"] c #C8C9CA",
"[ c #C9C9CA",
"{ c #CACACB",
"} c #CCCCCE",
"| c #CCCCCF",
/* pixels */
">>>ffflzz##O9999q9999#+#6661119q9###>;>fsf111###",
">>>ffflzz###9990999q9###66611<999@##>>>fff11<###",
">>>dsfzkz#+O9q99q9999##O666111999###>>,dff111#+#",
"zzzfff>>>#+O>;>9q911<###111pat111###111999>>,###",
"zkzfff>;>###:>>999111###13<iii111#+#111999>>>###",
"zzzfff:;>###>>>999111###11<iii211###111099>;>###",
"         ##O>>>fff211###  o      @#O999zkz---@#O",
"        o###>;>fff211###   .X .  @##099zzz---###",
" X       @##>>>dff11<###.  . o X ###099zkz---###",
">>>fff111###1119q7>>>#+O&*%iit%%$##O999jjj>;,@##",
">>>fff111###11<099>>>@+#%%%iii%*%##O099jjj>>>#+#",
">>,fff111###111099>>>###%%$iii&%$#+#099jjj>;>###",
"111999>>>##O999lzz---@##997jjjrrr@##555hgh111@##",
"131999>>>###999zzz---@#O997kjjrrr@##555hgh11<###",
"211999>>>###999zkz-=-@+#999jjjrer###554hhh111##O",
"099zzz-=-###999jjj>>,###999wwwqww###999999www@##",
"999zzz---###999kjj>>>@##999qwww0w###999999q0w###",
"999zzz-=-@##999kjj:>>###099ww8qw8###999097qww###",
"999111>>>@#O>>>%%%11<#+#>>>999111###111099211##O",
"999111>>,###>>>&%%111@##>>>999111###1310q911<###",
"99913<>>>###>>>%%%11<###>>>099231#+#11199911<###",
"TTT{{{KLJcxxZZCBBBBBBxvxZZZBBBJJJxvbJJGWWWKLJxxx",
"TTT{{{KJJxxxZZZBBBBBVcvxZZZBBBJJJxxxJJJWWWKJJxxx",
"TRT{{{JJJxvxZZZBBVBBBxvxZSZBBBJJJxxxJJGWWWKLJcxx",
"WWEQWW^^^cxxBBBNBBZZZcxxBBBBBBJLJxvbJJJWWWJJJxxx",
"QWWWWE^^/xxxBBVBBBZZZxxxBBBBBVJJJxxxKLJWWWKJJxxx",
"W!WWWW^^^xxxBMBBBBZZCcxxBBBBBBJJJxxxJLJWWWJLJcxx",
"JLGWWWJJJxxxZZZBBVTTYxxbZZZBBVBBBxxxJJJWWWWWWxvx",
"KLJW!WJJJxxbAZZBBBTTTxxxZZZBBBBBVxxxKJJWWWW!Wxxx",
"JJJWWWKJJxxxZZZNBBTTTxvxZSZBMBBBBxxbJJJQ!WWWExxx",
"JJJJJJJJJxxxZZZ]'[~~~xxxZZZBBVWWWxvxJJJW!EWWWxxx",
"JJJJJJJJJcxbZZZ]'[~~~xxbZZZBBBW!WcxxJJJQWWWWWxxx",
"JJJJJJJJGxxxZZZ[[[~~~xxxZSZBMVQWWcxbKJJQWWWWWcxx",
"JJJWWWJLJxxxnnnFFFBMBxxxAZCW!WWWWxxxJJGNBBQWWxxx",
"JLGWWWJJJxxxnnmDFFBBBxvxZZZW!WWWWxvbJLJBBBWWWxxx",
"KJJWWWJJJcxxnnnDFFBBBxxxAZZWWWW!WxxxJJJBBBWWWxxx",
"WWWW!W^^^xxxttttttyutxxxJJGQWWKLJxxxytttttttixxx",
"W!WWWW^^^xxbtttttttttxvxJJJQWWJJJxxbtttttttttcxb",
"QWWWWW^^^cxxttittitttcxxJJJWWWJJJxxbtuttttyttxvx",
"JJJQ!WJJJxxxZZCWWWJJGxvxJJJWWWKLJcxxZSZ)(_KJJxxx",
"JLGWWWJJJcxxZZZWWWJLGxxxJJGWWWJJJxxxZSC)))JJJxvx",
"JJJWWWKJJxxxZZZWWWJJJxvxJJJWWWJJGxxxAZZ)))JJJcxx",
"JJGWWWKJJxxxZZZ'``JJJxxxWWWWWWKJJxxbNBVBBBZZCcvx",
"JJJWWWJJGxxxZZZ```JJJxvxWWWQWWJJJxxbBBBNBBASZxxx",
"JJJWWWJJJcxxZZZ```JJJxxxWWWQWWJJJxvxBBBBBBAZZxxx",
"JLJWWWKJJxxxKLGQWWZZZxxbGHG}}}UUUxxxAZZZZZKJJxxx",
"JJJWWEJJGxxxJLJW!WZZCxxxGGG}}|IPUcxxZSCZZZJJJxxx",
"JJJW!EKJJxxxKJJWWWZZCxxxGGJ}}}UUUxxxZZCZSZJJJxxx"
};
