/* XPM */
static char *_5_5984816ad1b5eeb1d7de9992be8a8f957b7096d1b17265ff34deeb80951b9abf[] = {
/* columns rows colors chars-per-pixel */
"48 48 101 2 ",
"   c #8E8E8E",
".  c #8F8E8E",
"X  c #8E8F8E",
"o  c #8E8E8F",
"O  c #939392",
"+  c #939293",
"@  c #929393",
"#  c #939393",
"$  c #9E9E9F",
"%  c #9F9E9F",
"&  c #9F9EA0",
"*  c #9E9FA0",
"=  c #9F9FA0",
"-  c #A1A0A2",
";  c #A0A1A2",
":  c #A1A1A2",
">  c #A1A1A3",
",  c #A2A2A2",
"<  c #A2A2A3",
"1  c #A3A2A3",
"2  c #A2A3A3",
"3  c gray65",
"4  c #A6A6A7",
"5  c #A7A6A7",
"6  c #A6A7A7",
"7  c gray66",
"8  c #A9A8A8",
"9  c #A8A9A8",
"0  c #A8A8A9",
"q  c #A9A9AA",
"w  c #A8A9AB",
"e  c #A9A9AB",
"r  c #ACACAE",
"t  c #ADACAE",
"y  c #ACADAE",
"u  c #ADADAE",
"i  c #ACACAF",
"p  c #ADADAF",
"a  c #AEAEAE",
"s  c #AFAEAE",
"d  c #AEAFAE",
"f  c #AEAEAF",
"g  c #B8B9BA",
"h  c #B9B9BA",
"j  c #B9B9BB",
"k  c #BBBABC",
"l  c #BABBBC",
"z  c #BBBBBC",
"x  c #BBBBBD",
"c  c #BCBCBC",
"v  c #BCBCBD",
"b  c #BDBCBD",
"n  c #BCBDBD",
"m  c gray",
"M  c #BEBEBF",
"N  c #BFBEBF",
"B  c #BEBFBF",
"V  c #BFBFC0",
"C  c #C0C0C0",
"Z  c #C0C1C0",
"A  c #C0C0C1",
"S  c #C1C0C1",
"D  c #C0C1C1",
"F  c #C1C0C2",
"G  c #C0C1C2",
"H  c #C1C1C2",
"J  c #C1C1C3",
"K  c #C2C2C3",
"L  c #C3C2C3",
"P  c #C3C3C4",
"I  c #C2C3C5",
"U  c #C3C3C5",
"Y  c gray77",
"T  c #C4C4C5",
"R  c #C5C4C5",
"E  c #C4C5C5",
"W  c #C4C4C6",
"Q  c #C5C4C6",
"!  c #C4C5C6",
"~  c #C5C5C6",
"^  c #C4C4C7",
"/  c #C5C5C7",
"(  c #C6C6C7",
")  c #C7C6C7",
"_  c #C6C7C7",
"`  c #C7C6C8",
"'  c #C6C7C8",
"]  c #C7C7C8",
"[  c #C7C7C9",
"{  c #C8C8CA",
"}  c #C9C8CA",
"|  c #C8C9CA",
" . c #C9C9CA",
".. c #C8C8CB",
"X. c #CACACA",
"o. c #CACACB",
"O. c #CACBCB",
"+. c #CCCCCE",
"@. c #CDCCCE",
"#. c #CDCDCE",
"$. c #CDCDCF",
/* pixels */
": : : e e e u u u # # # 4 6 4 4 4 4 T E T a a a U U P A A A T T T a a a N M M { { { A A C s a a ",
": : : w e q u u u @ # # 4 4 4 4 4 4 R T T s a a I U U A D C R T T a a f M M m { | { A A C a a a ",
"; : : e e q y u u @ # # 4 4 4 4 6 4 R T T a a a I U U A A A T E Y a a a M M M { { ..A D A a a a ",
"y u u e e e : : : # # # : - : 5 4 4 A A A a d a A A A ] ] ] A A A a a a A A A T T Y M M m s a a ",
"u u u e e e : : > # # # : - : 4 4 3 A A C a a a A A A ] ] ] A A C s d a A A A T E Y M B m a a a ",
"u u u e e e : : > # # # : : : 5 4 3 A D A a a a A D A ] ] ] S D C a a f S A C R T T M M M a a a ",
".         o       # # # : - : e e e A A C s a a 7 7 7 7 7 7 7 7 7 a d a W W ^ #.#.$.b n v a d a ",
"      .           # # O : : : e e e A A A a d a 7 7 7 7 7 7 7 7 7 s a a W W W #.@.#.v v v s a a ",
"  X   . X   .   o # # # : : > e e q A A C a a f 7 7 7 7 9 7 7 9 0 a a a W W W #.#.#.v n v a a a ",
": : : e e e 1 < < # # O < < < 4 4 3 M M m a a a z z x ' ] ] z z z s a f W W W +.+.+.M M M s a f ",
": : : w e e < 2 < # # O < < < 4 4 4 M M M a a a z z z ' ] [ l k z a a a W W ^ +.+.+.M M M a a a ",
"; : : e e e 1 < < @ # O < < < 4 4 4 N B M a a a z k z ] ` ] z z z a a a W W ^ @.+.+.M M m a a f ",
"< < < 4 4 4 : : : # # # 4 4 4 u t u v v c a a a T T T +.+.+.) ( ( a a a K K K o.o.o.A A C a a a ",
"< < , 4 4 4 : : : # # # 4 4 4 u t u b v v a d a T T T +.+.+.( _ ( a a a K K K o.o.X.S A A a a a ",
"< 2 < 5 4 3 : - : # # O 5 4 4 u t u v n v a a f T T T +.+.+.( ( ( a d a L K K o.O.o.A A A a a a ",
"4 4 4 u u u = & = # # # 5 4 4 r r r M M M a a a R T T ~ Q ~ ! ~ ~ s a a R T T T T T ~ ~ ~ a d a ",
"4 4 4 u u p * & = @ # # 4 4 4 r y i M B M a a a T T T ! ~ ~ ~ ~ ~ a a a T T Y T E T ~ ~ ~ a a a ",
"4 4 4 u u u = = = @ + # 4 4 4 r r i M B M a a a T T T ~ ~ / ~ ~ / a d a T T T T T T ~ ~ / a a a ",
"4 4 4 < < < : : : # # # : : > $ $ $ A A A a d a M M m R T T A A A a a a A A A T T Y A A A a a a ",
"4 4 4 < < < : - : # # # : : : $ $ $ A A A s d a M M M T T T S A C a a a A A A T T T A D A a d f ",
"4 4 4 < < < : - : # # O : : : % $ $ A A A a a a M M m R T Y A A A a a f A A A T E T A A A a d a ",
"K K K o.o.o.S A A a a a M M M z z z l z z s a a M M M z z z A D A a a f A A C R T T A A A a d a ",
"K K K o.o.o.A A A a a a M M m z z z z z z s a a M B M z k z A A A a a a A A C T E T A A A a a a ",
"K K K o.o.o.A A A a a a M M M z z z l z z a d f M M M z z z S A A s a a A A A T E T A A A a a a ",
"T T T T T Y ~ ~ ~ a d a z k z z z z N B M a a a l k z z z z A A A s a a A A C T T Y S A A a a f ",
"T T T T E T ~ ~ / a a a z z z z z z M M M a a a z z z z z x A A A a a a A D A T T T A A C a a f ",
"T T T R T T ~ ~ / a d a z z z z z z M M M s a a z k z z k z A D A a a a A A A R T T A D A a a a ",
"A A A T T Y A A A a d a M M M z z z K K K a a a M M M z z z z z z a d a A D A T T Y R T T a a a ",
"A A A T T T A A A a d a M B m z z z K K K a d a N B M l z z z z z s a a A A C T T T T E T a a a ",
"A D A T T T S A C a a a M M M z z z K K K s a f M M M l k z z z x s a a S A A T T T R T T s a f ",
"A A A A A C A A C a a a M M M |  . .Q ! W a a a M M m z z z T T T a d a A A A T T T R T T s d a ",
"A D C A A A A A C a d a M M M  . . .W W W s a a M M M l z z T T T a a f S A A T T T T T T a d f ",
"A D A S D A A A A a a a M M M  . . .Q W W a a a M M M l k z T T T s a a A A A R E T T T T a a a ",
"A A A T T T A A A a a a h h j V V V z z z a a a M M M T T T T E T a a a A A A z z z T T T a a f ",
"A A A R T T A A A a a a h h j V V V z z z a a a M B M T T Y T T T a a a A A C z z z T T T a d a ",
"A A C T T T A A A s d a g h h V V V l k z s a a M B M T T T R T T a d f A A A z z x T T Y s a a ",
"T T T R T T ~ ~ ~ a a f 7 7 0 7 9 0 7 7 7 a a f A A A T T Y A A A a a f 7 7 7 7 7 7 7 7 7 a a a ",
"T E T T T T ~ ~ ~ a a a 7 7 7 7 7 0 7 7 7 a a f A A A T T T A A A a d f 7 7 7 7 7 7 7 7 7 a a a ",
"T E T R T T ~ ~ ~ a a a 8 7 7 8 7 7 7 7 7 a a a A A A R T T A A A s a a 8 7 7 7 7 0 7 7 7 a a f ",
"A A A T T T A D A a a a M M M T T T S A A a a a S A A T T T A A A a a f N B M ] ] ] A D A a a f ",
"A A A T E Y A A A a a a M B M T T Y A A A a d a A A A R T T S A A a d a M M M ] ] ] S A A a d f ",
"A A C T T T A A A a a a M M M T T T A A A a a a A A A R E T S A A a d f N M M ] ] [ A A A a a a ",
"A A C T T T A A A a a f M M M } { { A A A a a a T E T T T Y A D C a d a z z z z z z M M M s a a ",
"S A A T T T A A A a a a M B M } { { A A C a a a T E T T T T A A A a a a z z z z z z M M M a a a ",
"S A A R T T A A C a a a N M M { { { S D A a a f T T T T T T A A A a a a z z z z z z M M m s a a ",
"A D A R T T S A A s a a A A A R E T M M M a a a C Z C +.+.+.H H J a a a M M m M M M S A A a a a ",
"A A C T E T A A A a a f A A A T T T M M M a a a C Z C @.+.+.H H H a d a N M M M M M A A A a a a ",
"A A A T T T A A A a d a A A A T E T M M m a a a C C C +.+.+.G F J a a a M M M M M M S A A s a a "
};
