/* XPM */
static char *_5938_2171e175040b5023c66b392add725fdc5d47d3f03d21439654969ce21de10395[] = {
/* columns rows colors chars-per-pixel */
"48 48 97 2 ",
"   c #8E8E8E",
".  c #8F8E8E",
"X  c #8E8F8E",
"o  c #8E8E8F",
"O  c #939392",
"+  c #939293",
"@  c #929393",
"#  c #939393",
"$  c #9C9C9D",
"%  c #9D9C9D",
"&  c gray62",
"*  c #9E9E9F",
"=  c #9F9E9F",
"-  c #9E9F9F",
";  c #9F9FA0",
":  c #9F9FA1",
">  c #A1A0A2",
",  c #A0A1A2",
"<  c #A1A1A2",
"1  c #A1A1A3",
"2  c #A2A2A2",
"3  c #A2A2A3",
"4  c #A3A2A3",
"5  c #A2A3A3",
"6  c #A4A4A5",
"7  c #A5A4A5",
"8  c gray65",
"9  c #A6A6A7",
"0  c #A7A6A7",
"q  c #A6A7A7",
"w  c #A7A7A7",
"e  c gray66",
"r  c #A9A8A8",
"t  c #A8A9A8",
"y  c #A8A8A9",
"u  c #A9A9AA",
"i  c #A9A8AB",
"p  c #A9A9AB",
"a  c #AAAAAA",
"s  c #AAAAAB",
"d  c #ABABAC",
"f  c #ACACAE",
"g  c #ADACAE",
"h  c #ACADAE",
"j  c #ADADAE",
"k  c #ADADAF",
"l  c #AEAEAE",
"z  c #AFAEAE",
"x  c #AEAFAE",
"c  c #AEAEAF",
"v  c #BBBABC",
"b  c #BABBBC",
"n  c #BBBBBC",
"m  c #BBBBBD",
"M  c #BCBCBC",
"N  c #BCBCBD",
"B  c #BDBCBD",
"V  c gray",
"C  c #BEBEBF",
"Z  c #BFBEBF",
"A  c #BEBFBF",
"S  c #C0C0C0",
"D  c #C1C0C0",
"F  c #C0C0C1",
"G  c #C1C0C1",
"H  c #C0C1C1",
"J  c #C0C1C2",
"K  c #C1C1C2",
"L  c #C1C1C3",
"P  c gray76",
"I  c #C2C2C3",
"U  c #C3C2C3",
"Y  c #C3C3C4",
"T  c #C2C3C5",
"R  c #C3C3C5",
"E  c gray77",
"W  c #C4C4C5",
"Q  c #C5C4C5",
"!  c #C4C5C5",
"~  c #C4C4C6",
"^  c #C5C4C6",
"/  c #C4C5C6",
"(  c #C5C5C6",
")  c #C4C4C7",
"_  c #C5C5C7",
"`  c #C6C6C7",
"'  c #C6C7C8",
"]  c #C7C7C8",
"[  c #C7C7C9",
"{  c #C8C8CA",
"}  c #CACACB",
"|  c #CCCCCE",
" . c #CDCCCE",
".. c #CCCDCE",
"X. c #CDCDCE",
"o. c #CCCCCF",
"O. c #CDCDCF",
/* pixels */
"< < < p i p j j j # # # 9 9 9 9 q 9 W ! W l l l R R R F F F Q ! W l l l C C C { { { F F F l l c ",
"< > < p p p j j k # # # 0 q 8 0 9 9 W ! E l l l R R Y F F S W W W z l l Z C C { { { G F F l x l ",
"< < < p i p j j j # # # 9 9 9 9 q 9 W W E z l l T R R F F F Q W W l l l C C C { { { F F F l x l ",
"h j j p p p < < < @ # # < < 1 0 9 9 F H F l l l F F F ] ] ] F F F z l l F F F W W E C C C l l c ",
"j j j p i p < < 1 # # O < < < 0 9 9 F H F z l l F H F ' ] ] F F F z l l F F F W W E C C C l l l ",
"j j j p i u , < < # # # < > < 9 9 9 F F F l l l F F F ] ] [ F H F l l l F F F W ! W C C C z l l ",
"  X   . X     X   # # # < < < p p p F F F l l l e t e r e e e t e l l c ~ / ~ X. .X.N N N z x l ",
".       X         # # O < < < p p p F F F l l c e e e e e e e e e l l l ^ ~ ~ X.X.O.N N N l l c ",
"          o .   o # # # < < 1 p p p F F F z l l e e e e e e r t e l l l ~ ~ ~ ..X.X.N N M z l l ",
"< > < p p p 3 5 3 # # O 3 3 3 0 9 8 C C C l l l n n n ] ] ] n n n z x c ~ ~ ~ | | | C C V l l l ",
"< < < p i p 3 3 3 # # # 3 3 3 9 9 9 C A C z x c n n n ] ] ] n n n l x l ~ ~ ~ | | o.C C C l l l ",
"< < < p p p 3 3 3 # + # 3 3 3 9 9 9 C C C l l l n n n ] ] [ n n n l x l ^ / ) | | | C C V l l l ",
"3 3 3 9 9 9 < < < # # O 9 9 9 j j j N N N l l l W ! W | | | ` ` ` l l l I I I } } } F F F l l l ",
"3 3 3 0 9 9 < > < # + # 9 9 8 j j j B N N l l l W W E | | | ` ` ` z l l I I I } } } F F F l l l ",
"4 3 2 9 9 9 , < < # + O 0 q 9 h g j N N N l l l W W W | | | ` ` ` z x l I I I } } } G H F l x l ",
"9 q 9 h j j ; ; ; @ # # 9 9 9 f f f C C C l l l Q W W / ( ( ( ^ ( z x l W W W W W W ( ^ _ l l c ",
"9 9 9 j j j ; ; ; # # # 9 9 9 f f f C C C l x l W W E / ( _ ( ( ( l l l W W W W W W ( ( _ l x c ",
"9 9 9 j j j ; ; : @ # O 9 9 8 f f f C A C l l c W W W ( ( ( ( ^ ( l l c W ! W W W E / ^ ( l l l ",
"9 9 8 3 3 2 < < < # # # < < 1 = * * F F S z l c C C C W W W F F F l l l F F F W W W G F F z x l ",
"9 9 8 3 3 3 < < < # # # < > < * * * F H F l l l C A C W W W F H F l x l F F F Q ! W F F F l l l ",
"9 9 9 3 3 3 < > < # # # , < < * * * F H F l l l C C C W W W F F F l l c F F F Q ! W F H F z x l ",
"6 6 6 d d d 3 3 3 # # # < < < * * * n n n l l l C C C b n n F H F l l l F F F W W W F F F l l l ",
"7 6 6 d d d 3 5 3 # # # < < < * - * b n n l l l C A C b n m G F F l l l G F F W W W G F F l l l ",
"6 6 6 d d d 3 3 3 # # # < > < = * * n n m l x l C A C n n n F F F l l c F H S Q W W G F F z l l ",
"9 9 9 9 9 9 q w w # # O * * * * * & Z C C z x c n v m n v n F H F l x c F H F Q W W F F F l l l ",
"9 9 9 9 9 9 w w w # + # * * & * * * Z C C l l l b n n n n m G F F l l c F F S W W E F F S l l l ",
"9 9 9 9 9 9 w w w # + # = * & = * * C C C z x l n n n n n n G F F l l l F F F W W W F F F l x l ",
"3 5 3 9 9 9 4 3 3 @ # # , < < * * * U I P l l l C C V n v m n n n z l l F F F Q W W Q W W z l l ",
"3 3 3 0 9 8 3 3 3 # # # , > < * * * U I I l l l C C C n n m n v n z l l F F F Q ! W Q W W l x l ",
"3 3 2 9 9 9 3 5 3 # # O < < < * * * I I P l x l C C C b v n n v n z l c G F F W W W W ! W l l l ",
"3 5 3 3 3 3 3 5 3 # # # , < < s s s ^ ~ ~ l l l C C C n n n W ! W l l c F H F W W W W W W z l l ",
"3 3 3 3 3 3 4 5 3 # # # < < < s s s ~ ~ ~ l l l Z A V b v n W W W l l l F F F W W W W W W l l l ",
"3 3 3 3 3 3 3 3 3 # # # < < < s s a ~ / ~ z l l C C C n v m W W W z l l F F F W ! W W ! W z l l ",
"3 3 2 0 9 9 4 3 3 # + # $ $ $ 2 2 2 n n n l l c C C C W W W Q W W l l l F H F b v m W ! W l l l ",
"3 3 3 0 9 9 3 3 3 # + # $ $ $ 2 2 2 n n m l l l C C V W W W W W W l l l F F F b n n W ! W l x c ",
"3 3 3 0 q 9 3 3 2 # + # % $ $ 2 2 2 b n n z x l Z C V W W W W W W l l c F F F b n n Q W E l l l ",
"9 9 9 9 9 8 w w w @ # #           o e e y z l l F F F W W W G H F l l l e e e r e e r t e z l l ",
"0 9 9 9 9 9 w w w @ + #             e e e l x c G F F W W E F F F l x l e e e e t e e t e l l l ",
"9 9 9 9 9 9 w w w # # # .           e e e l l l F F S Q W W F F F l x l e e e r e e e e e l x l ",
"3 5 3 9 9 9 3 3 3 # + # < < < 0 q 9 F F F l l l F H F Q W W G F F z x l C C V ] ] [ F F F z l l ",
"3 5 3 0 9 9 4 3 3 @ # # < < < 0 9 9 F F F l l l F F S Q W E G F F l l l C C V ' ] ] F F F l l l ",
"3 3 3 9 9 9 3 3 3 # + # , > < 9 9 9 F F F l l l G F F W W W F F F l l l C A V ] ] ] F F F l l l ",
"3 3 3 9 9 9 3 3 3 # # # < < < p p p F H F l l l W ! E W ! W F F F l l c b n n b n n C C C z l l ",
"3 5 3 9 9 9 3 3 3 # # # < < 1 p p p G H F l l l W W E W W E F F F l x l n n n n n n C A V l l l ",
"4 3 3 0 9 9 3 3 3 # # # < < < p p p G H F l l l W W W Q W W F F S l x l n n n n n n C C C l l l ",
"3 3 3 9 9 9 4 3 3 # # # 3 3 3 0 9 9 C C C l l l D S S | | | K K L l l l C C C C C C F F F z l l ",
"3 3 3 9 9 9 4 5 2 # # # 3 3 2 9 9 9 Z C C l l l D S S | | | K K K l l l C A C C C C F F F l l l ",
"3 3 3 9 9 9 3 5 3 @ # # 4 5 3 9 q 9 Z C C l l c S S S | | o.J K K l l l C C C C C C F F F l l l "
};
