/* XPM */
static char *_613_3adf59092c0a4d27454736efbca327a562a6f7008dab9827efab957699d1f9e6[] = {
/* columns rows colors chars-per-pixel */
"48 48 84 1 ",
"  c gray62",
". c #9F9E9E",
"X c #9F9F9E",
"o c #9E9E9F",
"O c #9F9E9F",
"+ c #9E9F9F",
"@ c #9F9F9F",
"# c #A0A0A0",
"$ c #A1A0A0",
"% c #A0A1A0",
"& c #A1A1A0",
"* c #A0A0A1",
"= c #A1A0A1",
"- c #A0A1A1",
"; c gray63",
": c #A2A2A2",
"> c #A3A2A2",
", c #A2A3A2",
"< c #A3A3A2",
"1 c #A2A2A3",
"2 c #A3A2A3",
"3 c #A2A3A3",
"4 c gray64",
"5 c #AEAEAE",
"6 c #AFAEAE",
"7 c #AEAFAE",
"8 c #AFAFAE",
"9 c #AEAEAF",
"0 c #AFAEAF",
"q c #AEAFAF",
"w c #AFAFAF",
"e c gray69",
"r c #B1B0B0",
"t c #B0B1B0",
"y c #B1B1B0",
"u c #B0B0B1",
"i c #B1B0B1",
"p c #B0B1B1",
"a c #B1B1B1",
"s c #B2B2B2",
"d c #B3B2B2",
"f c #B2B3B2",
"g c #B3B3B2",
"h c #B2B2B3",
"j c #B3B2B3",
"k c #B2B3B3",
"l c gray70",
"z c #B4B4B4",
"x c #B5B4B4",
"c c #B4B5B4",
"v c #B4B4B5",
"b c #B5B4B5",
"n c #B4B5B5",
"m c gray71",
"M c #B7B7B6",
"N c #B7B6B7",
"B c #B6B7B7",
"V c #B7B7B7",
"C c gray72",
"Z c #B9B8B8",
"A c #B8B9B8",
"S c #B9B9B8",
"D c #B8B8B9",
"F c #B9B8B9",
"G c #B8B9B9",
"H c #B9B9B9",
"J c gray73",
"K c #BBBBBA",
"L c #BABABB",
"P c #BABBBB",
"I c #BBBBBB",
"U c gray",
"Y c #BFBEBE",
"T c #BEBFBE",
"R c #BFBFBE",
"E c #BFBEBF",
"W c #BEBFBF",
"Q c gray75",
"! c #C1C0C1",
"~ c #C1C1C1",
"^ c #CBCBCA",
"/ c #CBCACB",
"( c #CACBCB",
") c #CBCBCB",
/* pixels */
"@@X$#*$%*###$#*#%#aaaaaypaaaaaaayaaaaaaaaaree)/)",
"@@X$#######*####%*aiaaaaaaaaaaaayaaapaaaaaeee)))",
"@@@######$########aaaaiaaaaaaapaypaaaaapaaetu)))",
"@@X#%#####%#$#####aaaaaaaaaaaaaaaaaaaaaaiaete)))",
"@@@##*####%*####%#paaaaaaaaaayaaaaayaaaaaaeee)))",
"@@@#%##########$##aiypaaaiaaaypaaaaaaaypaaeee)))",
";;;32442<344344324zzvzczzzzxzzzzzzzzzzzzzzdssWEQ",
";;;44442442<444444zczzczzzzzzzxzzzczzzvxzzsssQQR",
";;;444344444444444zczzzzzzvzzzzzzzzzxzzzzzsssQQQ",
"###::::::::::,::::lllljgllgljlllglllllllllaayCCC",
"$#*::::::>::::::::ljllllllllllljllllkllljgaaaCCC",
"###::::::>,:>::::1lllllglllllgklgllgljllllaaaCAC",
"##*:::-;&44444<444zzzzzzzzzzzzzcvxzzzczzczsssQQQ",
"###:::;;;424344444zzzzzzzzzzzzzzzxzvzzzzzzsssQQQ",
"###::1;;&444344444zzzzzzzzzzzzzzzzzzzzvzzzsssQQQ",
"   @OX@@@+@X###$%#aaaaaaaaaaaapaapaaaaaetuww8QQQ",
".  @O@@O@@@@##*###paaaaaaaapiaaaaaayaiaeeew0wQQR",
"  o@@@@@@@@@####%#aaaaaapaaaayaaaaiaaaaeeeqwwQQQ",
"@@X;;;-;;;=;;;;;;;sshssssfsssssssssssssssseee)/^",
"@@@;;&;;&-=;;;&;;;dshssssshsssssssssdssssseee)/^",
"+@@;;;;;&;;;-=;;;;sssssssshsshsfsssssfsssseee)))",
"eeeaiyaaaaaapiaaiyaiyaaapaaaaaaayaayaaapaaeee)))",
"reeaaaaayaaaaiaaaaaaaaaaaiaaaapaaaayaaaaayeee)/)",
"eteaaaaiaaayaaaaiaaaaaaaaiaaaaaayaaaaaaaaaeeu())",
"555675555555555555575675559555555ssssssssseee)))",
"575555555555555675555555555575555dshsssdsseee)))",
"555559555555555555555555559555555sssdssssseee)))",
"reepiaaiaaaapaaaaaaayaiaaaadsssssssssssdsssss))^",
"reepaaaaapaypaaaiaaaapaaaiasshsshsshsssdshsss)/)",
"eeuaiaaiaaaaaaapaaaaaaaaaaassssshssssssssssss)))",
"sssxzzzzvsfssshaaaaayete555aaaaaapaapaaaaapay)))",
"ssszzzzzzdshsssaaaaaaete555aaaaiyaaaaaaaaaaaa)))",
"dfszzzzzzsfssshaaaaaaeeu559aaaaaaaaapaaaaaaaa)))",
"eeeaaapaypayaiaaaaaaaaaa559575555555555655555~!~",
"reeaayaaaaaaaaaaaaaaaaay555555555555555575655~~~",
"eeuaiaaayaaaaaapiaaayaaa575655555555555555655~~~",
"eeesshssssfsssssssdssssssshaiaaayaaaaaaaayaaaCCC",
"eeessssshssssshssssshsfsssspaapaaaiaaaaaaaaaaZCD",
"reessssssssssfssshssssshdssaaaaaaaaaaaaaiaaaaCCC",
"sshxzvzzzzzzzzvzzzzzzzczxzzzczzzzxcvzzzxzzsssQQQ",
"sfsxzzzzzzzzzzzzczzzzzczzzzzzzzzzxzzzzzzzzsssQQQ",
"ssszzzzzzzzzzzzzczzzzzzzzzzzczzczzczxzvzzzsssQQQ",
"ssszzzxzzxczzczxczzzzzzzzzzzzzxzzzzzxzzxzzsssYUU",
"dssxzvzzzzzvxzzzzvzzzzzzzzzzzzzzzzzzzcvzzzsssUUU",
"dshzzzzzzzzzzzzzzzxzzzzzzzzzzzzczzzzzzzxzzsssYTU",
"))))))IIIJJLCCCmmmmmmVVVVVVHFHVVVzzzzzzQER))^)))",
"()))))PIKJJJZCCmbmmmmBVMVVVGHSBNMzczzczQQQ)))(/)",
")))())IIIJJJCCCnbmmmmVNVVVVHHHVNVxczzzvQQQ))))))"
};
