/* XPM */
static char *_2323_8a4977a6b3c433e5982c869d80a664cf362af884754258cc7cf3fac3dff62897[] = {
/* columns rows colors chars-per-pixel */
"48 48 55 1 ",
"  c #9D9D9C",
". c #9D9C9D",
"X c #9C9D9D",
"o c #9D9D9D",
"O c gray62",
"+ c #9F9E9E",
"@ c #9E9F9E",
"# c #9F9F9E",
"$ c #9E9E9F",
"% c #9F9E9F",
"& c #9E9F9F",
"* c #9F9F9F",
"= c #A0A0A0",
"- c #A1A0A0",
"; c #A0A1A0",
": c #A1A1A0",
"> c #A0A0A1",
", c #A1A0A1",
"< c #A0A1A1",
"1 c gray63",
"2 c #A2A2A2",
"3 c #A3A2A2",
"4 c #A2A3A2",
"5 c #A3A3A2",
"6 c #A2A2A3",
"7 c #A3A2A3",
"8 c #A2A3A3",
"9 c gray64",
"0 c #A4A4A4",
"q c #A5A4A4",
"w c #A4A5A4",
"e c gray65",
"r c #A7A6A6",
"t c #A6A7A6",
"y c #A7A7A6",
"u c #A6A6A7",
"i c #A6A7A7",
"p c #A7A7A7",
"a c gray66",
"s c #A9A8A8",
"d c #A8A9A9",
"f c #A9A9A9",
"g c #ACACAC",
"h c #ADACAC",
"j c #ADADAC",
"k c #ACACAD",
"l c #ADACAD",
"z c #ACADAD",
"x c gray68",
"c c #AFAFAE",
"v c #AFAFAF",
"b c gray72",
"n c #B9B8B8",
"m c #B8B9B8",
"M c #B8B8B9",
/* pixels */
"**#=;==;>=;===>-=============>-;=-========**#nbb",
"***================;>=======;>==>-======;=***bbb",
"***============-==-=>=;=-==========>=;==;=*%#nbM",
"**#===-;=-==================;===>==>======***bbb",
"*%#===-==============-;=-======;====-====>***bbM",
"&**-========-==============-=>===-=>===-==&**bmb",
"111899999995995979999999899999999995899995111xxx",
"1119999959999999799999959959799999999998991,1xxx",
"1119998999998798999998999998799999959999991,:zlx",
"=;>222222222222322222322222222242246222222===ete",
"=;=242342326222222226222222322222322222222-==ete",
"===222242222222222242222222222242222222222===eee",
"===32211199599999997599999989999599999989911:xlx",
"===222111995999999995879979999899999999999111xxx",
"==>2221,1899999899879999999999999995895999111xxx",
"OOO*%*&*****=;>-====>=============;====***+OOxxx",
"OOO*********=====>======-;====-====>=;=***O@Oxxx",
"OOO**#&*****-===;================-=>===**#OO$xxx",
"&**<1111:111111111<11111<,:1111,11,1111111***bbb",
"*%*11111111111111:1111,:111<1:111111<11111***bmb",
"*%*<,1111111111<1111:11:11:1111111,1111111&**nbb",
"*%*-=>=;===>==========;============>======***bbM",
"**#=====>==>==>===-===;====-========-=>-;=***bbb",
"*%*-======;==================>-===;=======***bbb",
"oooXooo.oooooooooooooo. ooooo ooo1,:111111**#bbb",
"oooo.oooooo ooooo ooooooooooooX.o111111111**#nbb",
"ooooo oooo. ooooo o.oo.ooo oooooo1111,1111***bbb",
"***=======;===>============<111,:1111111111,1nbb",
"***==========;=-=>-====>===111111111111<11111bbb",
"***=;====-==-==-;==========111111<11111111111nmb",
"111899995111111====;=***ooo=======;======>-==nbb",
"<11895995<11111==>==>***o.o==>======-========bmb",
"1119999951,1111=;====***oo =====>====;==;===>bbb",
"*%*-========-======;>-=>oo oooooooooooooooooovvc",
"&*#===-=====-=>=;=======oo ooooooo. o.ooooXoovvc",
"***===-==============-;>XooXooooooooXooX.oooovvv",
"&*#11:11111:111111<1111:1,1==================eeu",
"&%*<1111:11111:111111111111=;>====;====-==-==eee",
"***111111<1:11111:1,:11:11:===============-==ete",
"1,1995879995999999899999899899995995979999111xxx",
"111999899999999999975999995999979899999995111zxj",
"1119999999999999999999999959999999959999991,:xxx",
"11:99987599599589999999589997999999999989911:hgg",
"11:995999979999899999999879999895999999999111ggk",
"111999999999999979999979999995999999899999111ggg",
"bbbbbbdffaaaree000000eeereupppeee899979xxjbbbbbb",
"bbbbbbfffsaaeee000000eteeeeipyete879895xxxbbMbbb",
"bbbbmbfffaaaeeeq000w0eeueeepppeee895995xxxbbbbbb"
};
