/* XPM */
static char *_6439_099a838c1f1a4dd4718800889af39f29221008e36afef98250dd330b4a358710[] = {
/* columns rows colors chars-per-pixel */
"48 48 85 1 ",
"  c #9D9D9C",
". c #9D9C9D",
"X c #9C9D9D",
"o c #9D9D9D",
"O c gray62",
"+ c #9F9E9E",
"@ c #9E9F9E",
"# c #9F9F9E",
"$ c #9F9E9F",
"% c #9E9F9F",
"& c #9F9F9F",
"* c #A0A0A0",
"= c #A1A0A0",
"- c #A0A1A0",
"; c #A1A1A0",
": c #A0A0A1",
"> c #A1A0A1",
", c #A0A1A1",
"< c gray63",
"1 c #A2A2A2",
"2 c #A3A2A2",
"3 c #A2A3A2",
"4 c #A3A3A2",
"5 c #A2A2A3",
"6 c #A3A2A3",
"7 c #A2A3A3",
"8 c gray64",
"9 c #A4A4A4",
"0 c #A5A4A4",
"q c gray65",
"w c #A7A6A6",
"e c #A6A7A6",
"r c gray66",
"t c #A8A9A8",
"y c #A8A8A9",
"u c #A9A8A9",
"i c #A9A9A9",
"p c #ADADAC",
"a c #ADACAD",
"s c gray68",
"d c #AEAEAE",
"f c #AFAEAE",
"g c #AEAFAE",
"h c #AEAEAF",
"j c gray69",
"k c #B1B0B0",
"l c #B0B1B0",
"z c #B1B1B0",
"x c #B0B0B1",
"c c #B1B0B1",
"v c #B0B1B1",
"b c #B1B1B1",
"n c #B2B2B2",
"m c #B3B2B2",
"M c #B2B3B2",
"N c #B2B2B3",
"B c #B4B4B4",
"V c #B5B4B4",
"C c #B4B5B4",
"Z c #B5B5B4",
"A c #B4B4B5",
"S c #B4B5B5",
"D c gray71",
"F c #B7B7B6",
"G c #B7B6B7",
"H c #B6B7B7",
"J c #B7B7B7",
"K c gray72",
"L c #B9B8B8",
"P c #B8B9B8",
"I c #B9B9B8",
"U c #B8B8B9",
"Y c #B8B9B9",
"T c #B9B9B9",
"R c gray",
"E c #BFBFBE",
"W c #BEBEBF",
"Q c #BFBEBF",
"! c #BEBFBF",
"~ c gray75",
"^ c #C1C1C1",
"/ c #CBCBCA",
"( c #CBCACB",
") c #CACBCB",
"_ c #CBCBCB",
/* pixels */
"&&&*******-**-**-*********:***************&&&KPK",
"&&&***=**************=******-**-****=**=**&&&LPK",
"&&&**************:**:****-****=**=******-:&&&KKK",
"&$&********:=***-****=***-******:*********&&&KKK",
"&&&=******************-*=*:***=***********&&&KKK",
"&&#****-:*******-*******=*****=****:***=**&&&KKK",
"<<<884888888888884888868884888784788868884<<<sss",
"<<<768888888888888788888868884888888888888<<<sss",
"<<<884788868868888868888788788888784888784<<<sss",
"=*:111211111231111215111111111111131115111***wqq",
"***211131111111215131115115131111111131111*-:qqq",
"=**231215111111115135111115111131111111111***wqq",
"=**111<<<888868888768788888888884868888884,<<ssp",
"***131<<<788788888888888888788788888788888,<<sss",
"***111<><888884884888868888888884888784868,<<ssp",
"OOO%&&&&&%&&****-:*-******:****-*****-*%$#OOOsss",
"OOO&&&&&&&&&******=*:=*****************&$&OOOsss",
"OOO&&&&&&&&#**:**:****-***:*-***:**:**:&&&+@Osas",
"%&&<<<<<<,><<<<<<<<<<<<<,<;<<<<<<<<<<<<<<;&&&KKK",
"&&&<<<<<<<<<<><<<<<>;<<<,<<<<;<<<<<<<<<,<<&&&LKU",
"&&&<><,><<<;<<<<<<<<<<<<<<<,<<,<<<><<<<<<<%&&LKU",
"&&&*-:=*:=********vbbbcbvcbbbzbbzbbbbbbvczjjj_(_",
"&$&***=-:*********bcbvbbbbbbbzbbbvcbbbzbcbjjj)__",
"&&&*********=*****bcbbbbbbbvbzbbbbbzbbbbbzjjj___",
"o. Xoooooooooo ooodddddhddddghddhnnnnMNmnnjlj___",
"ooooooooooooX. o.oddhfgdfddddddddnnnnnnnMnkjj)(_",
"oo oo ooooo Xooooofddddddgddgddddmnnmnnnnnjjj___",
"&&&**:=*********-*bbzbbbbcbmnnnnnnnnnnnnMnnMn___",
"&&&=**=***-*=***-*bbbbbbbbbnnnnnnnnnnnnnnnnnn)__",
"&&&********:**:*-*bbbbbbbbbnnnnnNmnnnnnnnnnnn_(_",
",><888768<<<<<<*-*bbbjjxdddbcbvbzbbbbcbvbbbbb___",
"<<<888888,>;<<<***bczjjxdgdbbbbcbbcbbbbbbbbbz__/",
"<<<788888<<<<>;=**bbbjljfddbbbvcbbcbbbzvcbbcb)(_",
"&&&*-:*****:**:***bbbbbbddhdddddddgdfdddddddd^^^",
"&$#***=**=*:*-:***bbbbcbdgdddddddddhddhdgdddd^^^",
"&&&=****:*-*******bbbbbzddddddddddddddhdddddd^^^",
"&&&<<<<<<<<<<<<<<<nnnnnnnnnbbbbbbbbbvbbbbbbbbKKK",
"%&&<<<<<<<<;<><,><nnnnnnnMnbbzbcbbbbbbzbbbbbzKKK",
"&&&<<<<<<<<<<<<<<<nnnnMNnnnbbzbbzbbbbbbbcbbbbKKK",
"<<<888888884884868BCBBCBBBBVBBVBBVBBBCBVCBnnn!Q~",
"<<<888888764888888BCABBABBBBBBVBBBBBBBBBBAmnn~~~",
"<><784788888788888BBBBBABCBBBBVBBBCABBBBBBnnn~~E",
"<<;884884888888888BBBVCBBBBBBBBCBBBBBBBBBBmMNRRR",
",<<888888888888768BBABBBVBBBBBBCABBBBBBBBBnnnRRW",
"<<<864884888884784BBBBBBVBBVBBBBBBBBBBBBBBnMnRRR",
"LPKKKKiiirtyqeq099DDZJJJHJJTTTHJJBBBBBB~Q~______",
"KKKLPKiuirrrqqq999DDDJJJJJJYTTJGJBBBVCB!~~____(_",
"KKUKKUiuirryqqq099SDDJJFJJJTTIHJJBBBBCB~~~______"
};
