/* XPM */
static char *_wDpy3nCihI6ytFESk1m4Ku6Z5I_output[] = {
/* columns rows colors chars-per-pixel */
"48 48 9 1 ",
"  c None",
". c #3A3A50",
"X c #3B3A50",
"o c #3A3B50",
"O c #3A3A51",
"+ c #F8F8F8",
"@ c #F9F8F8",
"# c #F8F9F8",
"$ c #F8F8F9",
/* pixels */
".....................                           ",
".....................                           ",
".....................                           ",
"...@@@@@@@@@@@@@@@...                           ",
"...@@@@@@++@+@@@@@...                           ",
"...@@@@@@@++@@@@@@...                           ",
"...@@@@@@@@@@@@@@@...                           ",
"...@@@@@@@@@@@@@@@...                           ",
"...@@@@@@@@@@@@@@@...                           ",
"...@@@@@@@@@@@@@@@...                           ",
"...@@@@@@@@@@@@@@@...                           ",
"...@@@@@@++@@@@@@@...                           ",
"...@@@@@@@@@@@@@@@...                           ",
"...@@@@@@@@@@@@@@@...                           ",
"...@@@@@@@@@@@@@@@...                           ",
".....................                           ",
".....................                           ",
".....................                           ",
"                                                ",
"                                                ",
"                                                ",
"                                                ",
"                                                ",
"                                                ",
"                                                ",
"                                                ",
"                                                ",
"                                                ",
"                                                ",
"                                                ",
"                                                ",
"                                                ",
"                                                ",
"                                                ",
"                                                ",
"                                                ",
"                                                ",
"                                                ",
"                                                ",
"                                                ",
"                                                ",
"                                                ",
"                                                ",
"                                                ",
"                                                ",
"                                                ",
"                                                ",
"                                                "
};
