/* XPM */
static char *_d41e8ac18e94dffe293e1a1988d2bcegjP1J4PuaXbRofgV[] = {
/* columns rows colors chars-per-pixel */
"48 48 35 1 ",
"  c #3A3A50",
". c #3B3A50",
"X c #3A3B50",
"o c #3A3A51",
"O c #665A4E",
"+ c #675A4E",
"@ c #665B4E",
"# c #665A4F",
"$ c #796C5E",
"% c #786C5F",
"& c #796C5F",
"* c #796D5F",
"= c #817766",
"- c #817667",
"; c #807767",
": c #817767",
"> c #8B8172",
", c #8B8073",
"< c #8A8173",
"1 c #8B8173",
"2 c #9B8B7E",
"3 c #9B8A7F",
"4 c #9A8B7F",
"5 c #9B8B7F",
"6 c #A89C8C",
"7 c #A89C8D",
"8 c #A99C8D",
"9 c #A89D8D",
"0 c #A89D94",
"q c #A89C95",
"w c #A89D95",
"e c #A99D95",
"r c #AEA696",
"t c #AEA697",
"y c #AEA797",
/* pixels */
"   555www888www:::888555888555888555www:::ttt   ",
"   555www888www:::888555888555888555www:::ttt   ",
"   555www888www:::888555888555888555www:::ttt   ",
"   888555www888:::111888555888888www555:::555   ",
"   888555www888:::111888555888888www555:::555   ",
"   888555www888:::111888555888888www555:::555   ",
"   &&&&&&&&&&&&&&&&&&&&&&&&&&&&&&&&&&&&&&&&&&   ",
"   &&&&&&&&&&&&&&&&&&&&&&&&&&&&&&&&&&&&&&&&&&   ",
"   &&&&&&&&&&&&&&&&&&&&&&&&&&&&&&&&&&&&&&&&&&   ",
"   :::111888555888888888555:::555888555888555   ",
"   :::111888555888888888555:::555888555888555   ",
"   :::111888555888888888555:::555888555888555   ",
"   :::888888www555888555888:::888555www888www   ",
"   :::888888www555888555888:::888555www888www   ",
"   :::888888www555888555888:::888555www888www   ",
"   :::555888888888888www555111555888111888555   ",
"   :::555888888888888www555111555888111888555   ",
"   :::555888888888888www555111555888111888555   ",
"   &&&&&&&&&&&&&&&&&&&&&:::::::::&&&&&&&&&&&&   ",
"   &&&&&&&&&&&&&&&&&&&&&:::::::::&&&&&&&&&&&&   ",
"   &&&&&&&&&&&&&&&&&&&&&:::::::::&&&&&&&&&&&&   ",
"   888555888555:::555ttt555888111888555:::555   ",
"   888555888555:::555ttt555888111888555:::555   ",
"   888555888555:::555ttt555888111888555:::555   ",
"   888www555888:::888555888888888555888:::888   ",
"   888www555888:::888555888888888555888:::888   ",
"   888www555888:::888555888888888555888:::888   ",
"   888555www555:::111888555888555888555:::555   ",
"   888555www555:::111888555888555888555:::555   ",
"   888555www555:::111888555888555888555:::555   ",
"   &&&&&&&&&&&&&&&&&&&&&&&&&&&&&&&&&&&&&&&&&&   ",
"   &&&&&&&&&&&&&&&&&&&&&&&&&&&&&&&&&&&&&&&&&&   ",
"   &&&&&&&&&&&&&&&&&&&&&&&&&&&&&&&&&&&&&&&&&&   ",
"   :::111ttt888888555888111:::555ttt555111555   ",
"   :::111ttt888888555888111:::555ttt555111555   ",
"   :::111ttt888888555888111:::555ttt555111555   ",
"   :::www555888555www888888:::888555888555888   ",
"   :::www555888555www888888:::888555888555888   ",
"   :::www555888555www888888:::888555888555888   ",
"   :::555888888www555888555:::555888555888555   ",
"   :::555888888www555888555:::555888555888555   ",
"   :::555888888www555888555:::555888555888555   ",
"   OOOOOOOOOOOOOOOOOOOOOOOOOOOOOOOOOOOOOOOOOO   ",
"   OOOOOOOOOOOOOOOOOOOOOOOOOOOOOOOOOOOOOOOOOO   ",
"   OOOOOOOOOOOOOOOOOOOOOOOOOOOOOOOOOOOOOOOOOO   ",
"                                                ",
"                                                ",
"                                                "
};
