/* XPM */
static char *_w8PXH41gg7EP9apxEhqBkjjQ9Q_output[] = {
/* columns rows colors chars-per-pixel */
"32 48 12 1 ",
"  c None",
". c #3A3A50",
"X c #46465E",
"o c #724A40",
"O c #464660",
"+ c #C05F39",
"@ c #805449",
"# c #866150",
"$ c #C9835B",
"% c #DC9B5A",
"& c #F6AE9F",
"* c #FFCBB0",
/* pixels */
"                                ",
"                                ",
"                                ",
"                                ",
"                                ",
"        XXXXXXXXXXXXXXXX        ",
"        XXXXXXXXXXXXXXXX        ",
"      XX@@##########@@@@XX      ",
"      XX@@##########@@@@XX      ",
"    XX@@##############@@@@XX    ",
"    XX@@##############@@@@XX    ",
"    XX@@##############@@@@XX    ",
"    XX@@##############@@@@XX    ",
"  XXoo@@@@########@@@@@@@@ooXX  ",
"  XXoo@@@@########@@@@@@@@ooXX  ",
"  ..oo@@@@@@@@@@@@@@@@@@@@oo..  ",
"  ..oo@@@@@@@@@@@@@@@@@@@@oo..  ",
"  ..oo@@@@@@@@@@@@@@@@@@@@oo..  ",
"  ..oo@@@@@@@@@@@@@@@@@@@@oo..  ",
"  ..oooo@@@@@@@@@@@@@@@@oooo..  ",
"  ..oooo@@@@@@@@@@@@@@@@oooo..  ",
"  ..oooooooooooooooooooooooo..  ",
"  ..oooooooooooooooooooooooo..  ",
"  ..oooooooooooooooooooooooo..  ",
"  ..oooooooooooooooooooooooo..  ",
"  ..oooooooooooooooooooooooo..  ",
"  ..oooooooooooooooooooooooo..  ",
"    ..oooooooooooooooooooo..    ",
"    ..oooooooooooooooooooo..    ",
"    ......oooooooooooo......    ",
"    ......oooooooooooo......    ",
"  ..%%%%$$............$$%%%%OO  ",
"  ..%%%%$$............$$%%%%OO  ",
"  ..%%%%%%%%%%%%%%%%%%%%%%%%OO  ",
"  ..%%%%%%%%%%%%%%%%%%%%%%%%OO  ",
"..**....%%%%%%%%%%%%%%%%....**XX",
"..**....%%%%%%%%%%%%%%%%....**XX",
"..**&&..$$%%%%%%%%%%%%$$..&&**XX",
"..**&&..$$%%%%%%%%%%%%$$..&&**XX",
"  ......OO$$$$$$$$$$$$OO......  ",
"  ......OO$$$$$$$$$$$$OO......  ",
"      ..++............++..      ",
"      ..++............++..      ",
"      ..$$$$OOOOOOOO$$$$..      ",
"      ..$$$$OOOOOOOO$$$$..      ",
"      ..%%%%..    ..%%%%..      ",
"      ..%%%%..    ..%%%%..      ",
"        ....        ....        "
};
