/* XPM */
static char *_w8PXGTTdzZowugldg09L9Kr1pe_output[] = {
/* columns rows colors chars-per-pixel */
"32 48 17 1 ",
"  c None",
". c #3A3A50",
"X c #46465E",
"o c #724A40",
"O c #464660",
"+ c #956020",
"@ c #C05F39",
"# c #805449",
"$ c #866150",
"% c #C9835B",
"& c #DC9B5A",
"* c #F69784",
"= c #F6AE9F",
"- c #E2B39B",
"; c #DFD0BD",
": c #FFCBB0",
"> c #EBECD5",
/* pixels */
"                                ",
"                                ",
"                                ",
"          XXXXXXXXXXXXXX        ",
"          XXXXXXXXXXXXXX        ",
"        XX$$$$$$$$$$$$##XX      ",
"        XX$$$$$$$$$$$$##XX      ",
"      XX####$$$$$$$$$$####XX    ",
"      XX####$$$$$$$$$$####XX    ",
"    XX##$$######$$$$######XX    ",
"    XX##$$######$$$$######XX    ",
"    XX####################ooXX  ",
"    XX####################ooXX  ",
"  XXoo##################oooo..  ",
"  XXoo##################oooo..  ",
"  XXoo################oooooo..  ",
"  XXoo################oooooo..  ",
"  XXoo##--############oooooo..  ",
"  XXoo##--############oooooo..  ",
"  XX##--::::::--####oooooooo..  ",
"  XX##--::::::--####oooooooo..  ",
"    XX::::::::::--##oooooooo..  ",
"    XX::::::::::--##oooooooo..  ",
"    XX::..::::::::##==oooo..    ",
"    XX::..::::::::##==oooo..    ",
"    ..::++::::::::====oooo..    ",
"    ..::++::::::::====oooo..    ",
"      ..****==::::::====..      ",
"      ..****==::::::====..      ",
"        XXXXXX..........        ",
"        XXXXXX..........        ",
"        ..;;OO%%%%..%%..        ",
"        ..;;OO%%%%..%%..        ",
"        ..>>OO&&&&..%%..        ",
"        ..>>OO&&&&..%%..        ",
"        ..OOXX::::XX%%..        ",
"        ..OOXX::::XX%%..        ",
"        ..&&XX::==XX%%..        ",
"        ..&&XX::==XX%%..        ",
"        ..&&&&XXXX%%%%..        ",
"        ..&&&&XXXX%%%%..        ",
"          ............          ",
"          ............          ",
"          ..%%%%%%@@..          ",
"          ..%%%%%%@@..          ",
"            ..&&&&&&..          ",
"            ..&&&&&&..          ",
"              ......            "
};
