/* XPM */
static char *_w8PXK76wajrjm17U632nC9fMhD_output[] = {
/* columns rows colors chars-per-pixel */
"32 48 16 1 ",
"  c None",
". c #3A3A50",
"X c #46465E",
"o c #724A40",
"O c #464660",
"+ c #956020",
"@ c #805449",
"# c #866150",
"$ c #C9835B",
"% c #DC9B5A",
"& c #F69784",
"* c #F6AE9F",
"= c #E2B39B",
"- c #DFD0BD",
"; c #FFCBB0",
": c #EBECD5",
/* pixels */
"                                ",
"                                ",
"                                ",
"        XXXXXXXXXXXXXXXX        ",
"        XXXXXXXXXXXXXXXX        ",
"      XX@@########@@@@ooXX      ",
"      XX@@########@@@@ooXX      ",
"    XX@@########@@@@@@##ooXX    ",
"    XX@@########@@@@@@##ooXX    ",
"    XX@@@@####@@@@@@@@ooooXX    ",
"    XX@@@@####@@@@@@@@ooooXX    ",
"  XXoooo@@@@@@@@@@@@@@##ooooXX  ",
"  XXoooo@@@@@@@@@@@@@@##ooooXX  ",
"  ..oooooooo@@@@@@@@@@oooooo..  ",
"  ..oooooooo@@@@@@@@@@oooooo..  ",
"  XXoooooooooooooooo@@##ooooooXX",
"  XXoooooooooooooooo@@##ooooooXX",
"XXoooooooooooooo@@@@@@==ooooooXX",
"XXoooooooooooooo@@@@@@==ooooooXX",
"..oooooooooo@@@@##oo==;;;;oooo..",
"..oooooooooo@@@@##oo==;;;;oooo..",
"..oooooo@@##oo==;;;;;;;;;;**XX  ",
"..oooooo@@##oo==;;;;;;;;;;**XX  ",
"..oo@@##oo..==;;;;;;..;;;;;;XX  ",
"..oo@@##oo..==;;;;;;..;;;;;;XX  ",
"  ..XX**;;++;;;;;;;;++;;**XX    ",
"  ..XX**;;++;;;;;;;;++;;**XX    ",
"    XX**&&&&********&&&&**XX    ",
"    XX**&&&&********&&&&**XX    ",
"  ..$$XXXXXXXXXXXXXXXXXXXX$$OO  ",
"  ..$$XXXXXXXXXXXXXXXXXXXX$$OO  ",
"  ..%%$$..$$--------$$..$$%%OO  ",
"  ..%%$$..$$--------$$..$$%%OO  ",
"XX;;..%%OO%%OO::::OO%%OO%%..;;XX",
"XX;;..%%OO%%OO::::OO%%OO%%..;;XX",
"XX;;**%%$$OOOOOOOOOOOO$$%%**;;XX",
"XX;;**%%$$OOOOOOOOOOOO$$%%**;;XX",
"  XX....%%%%%%OO--%%%%%%....XX  ",
"  XX....%%%%%%OO--%%%%%%....XX  ",
"      ..%%%%%%OO%%%%%%%%..      ",
"      ..%%%%%%OO%%%%%%%%..      ",
"      ..$$$$........$$$$..      ",
"      ..$$$$........$$$$..      ",
"      ......$$OOOO$$......      ",
"      ......$$OOOO$$......      ",
"      ..%%%%..    ..%%%%..      ",
"      ..%%%%..    ..%%%%..      ",
"        ....        ....        "
};
