/* XPM */
static char *_wDaYZyWkYG945g4SoIAhiSlzGZ_output[] = {
/* columns rows colors chars-per-pixel */
"48 48 4 1 ",
"  c None",
". c black",
"X c #F7D231",
"o c #2AEDCF",
/* pixels */
"                                                ",
"                                                ",
"                                                ",
"                                                ",
"                                                ",
"                                                ",
"                                                ",
"                                                ",
"                                                ",
"                                                ",
"                                                ",
"                                                ",
"                                                ",
"                                                ",
"                                                ",
"           ...........................          ",
"           .XXXXXXXXXXXXXXXXXXXXXXXXX.          ",
"           .X.......................X.          ",
"           .X.ooooooooooooooooooooo.X.          ",
"           .X.ooooooooooooooooooooo.X.          ",
"           .X.ooooooooooooooooooooo.X.          ",
"           .X.ooooooooooooooooooooo.X.          ",
"           .X.ooooooooooooooooooooo.X.          ",
"           .X.ooooooooooooooooooooo.X.          ",
"           .X.ooooooooooooooooooooo.X.          ",
"           .X.ooooooooooooooooooooo.X.          ",
"           .X.ooooooooooooooooooooo.X.          ",
"           .X.ooooooooooooooooooooo.X.          ",
"           .X.ooooooooooooooooooooo.X.          ",
"           .X.ooooooooooooooooooooo.X.          ",
"           .X.......................X.          ",
"           .XXXXXXXXXXXXXXXXXXXXXXXXX.          ",
"           ...........................          ",
"          .XXXXXXXXXXXXXXXXXXXXXXXXXX.          ",
"         .XXXXXXXXXXXXXXXXXXXXXXXXXXXX.         ",
"        .XXXXXXXXXXXXXXXXXXXXXXXXXXXXXX.        ",
"       .XXXXXXXXXXXXXXXXXXXXXXXXXXXXXXXX.       ",
"      .XXXXXXXXXXXXXXXXXXXXXXXXXXXXXXXXXX.      ",
"     ......................................     ",
"     .XXXXXXXXXXXXXXXXXXXXXXXXXXXXXXXXXXXX.     ",
"     .XXXXXXXXXXXXXXXXXXXXXXXXXXXXXXXXXXXX.     ",
"     ......................................     ",
"                                                ",
"                                                ",
"                                                ",
"                                                ",
"                                                ",
"                                                "
};
