/* XPM */
static char *_wDSMLHC08vWeGRsbAYeQlt9YYO_output[] = {
/* columns rows colors chars-per-pixel */
"48 48 3 1 ",
"  c black",
". c #0BDE03",
"X c #D4EFD3",
/* pixels */
"................................................",
"................................................",
"..........                              ........",
".......... XXXXXXXXXXXXXXXXXXXXXXXXXXXX ........",
".......... XXXXXXXXXXXXXXXXXXXXXXXXXXXX ........",
".......... XXXXXXXXXXXXXXXXXXXXXXXXXXXX ........",
".......... XXXXXXXXXXXXXXXXXXXXXXXXXXXX ........",
".......... XXXXXXXXXXXXXXXXXXXXXXXXXXXX ........",
".......... XXXXXXXXXXXXXXXXXXXXXXXXXXXX ........",
".......... XXXXXXXXXXXXX     XXXXXXXXXX ........",
".......... XXXXXXXXXXXX XXXXX XXXXXXXXX ........",
".......... XXXXXXXXXXX XXXXXXX XXXXXXXX ........",
".......... XXXXXXXXXX XXXXXXXXX XXXXXXX ........",
".......... XXXXXXXXXX XXXXXXXXX XXXXXXX ........",
".......... XXXXXXXXXX XXXXXXXXX XXXXXXX ........",
".......... XXXXXXXXXX XXXXXXXXX XXXXXXX ........",
".......... XXXXXXXXXXX XXXXXXX XXXXXXXX ........",
".......... XXXXXXXXXXXX XXXXX XXXXXXXXX ........",
".......... XXXXXXXXXXXX      XXXXXXXXXX ........",
".......... XXXXXXXXXXXX    XXXXXXXXXXXX ........",
".......... XXXXXXX   X    XXXXXXXXXXXXX ........",
".......... XXX            XXXXX  XXXXXX ........",
".......... XXX             XXX   XXXXXX ........",
".......... XXX  XXXX        X   XXXXXXX ........",
".......... XX   XXX     X      XXXXXXXX ........",
".......... XX  XXX      XX    XXXXXXXXX ........",
".......... XX  XXX     XXXX  XXXXXXXXXX ........",
".......... XX XXX      XXXXXXXXXXXXXXXX ........",
".......... XX XX       XXXXXXXXXXXXXXXX ........",
".......... XXXX       XXXXXXXXXXXXXXXXX ........",
".......... XXX       XXXXXXXXXXXXXXXXXX ........",
".......... XX         XXXXXXXXXXXXXXXXX ........",
".......... XX   X      XXXXXXXXXXXXXXXX ........",
".......... XX  XXXX     XXXXXXXXXXXXXXX ........",
".......... X   XXXXXX    XXXXXXXXXXXXXX ........",
".......... X   XXXXXXX    XXXXXXXXXXXXX ........",
".......... X  XXXXXXX    XXXXXXXXXXXXXX ........",
"..........    XXXXXXX   XXXXXXXXXXXXXXX ........",
"..........    XXXXXX    XXXXXXXXXXXXXXX ........",
"......       XXXXXXX   XXXXXXXXXXXXXXXX ........",
"...         XXXXXXX   XXXXXXXXXXXXXXXXX ........",
"...     .. XXXXXXXX  XXXXXXXXXXXXXXXXXX ........",
".......... XXXXXXX  XXXXXXXXXXXXXXXXXXX ........",
"                                                ",
"........  XXXXXXX  XXXXXXXXXXXXXXXXXX  .........",
"......  XXXXXXXXX XXXXXXXXXXXXXXXXXX ...........",
"....  XXXXXXXXXXXXXXXXXXXXXXXXXXXXX ............",
"..                                 ............."
};
