/* XPM */
static char *_9e445d45283469ea638b8d63ef93568D66FDNkby1GGEQQp[] = {
/* columns rows colors chars-per-pixel */
"48 48 9 1 ",
"  c #3A3A50",
". c #665A4E",
"X c #796C5F",
"o c #817767",
"O c #8B8173",
"+ c #9A8B7F",
"@ c #A99C8D",
"# c #A89D95",
"$ c #AFA697",
/* pixels */
"###+++###@@@###ooo@@@+++@@@+++@@@+++###ooo$$$   ",
"###+++###@@@###ooo@@@+++@@@+++@@@+++###ooo$$$   ",
"###+++###@@@###ooo@@@+++@@@+++@@@+++###ooo$$$   ",
"+++@@@+++###@@@oooOOO@@@+++@@@@@@###+++ooo+++   ",
"+++@@@+++###@@@oooOOO@@@+++@@@@@@###+++ooo+++   ",
"+++@@@+++###@@@oooOOO@@@+++@@@@@@###+++ooo+++   ",
"XXXXXXXXXXXXXXXXXXXXXXXXXXXXXXXXXXXXXXXXXXXXX   ",
"XXXXXXXXXXXXXXXXXXXXXXXXXXXXXXXXXXXXXXXXXXXXX   ",
"XXXXXXXXXXXXXXXXXXXXXXXXXXXXXXXXXXXXXXXXXXXXX   ",
"+++oooOOO@@@+++@@@@@@@@@+++ooo+++@@@+++@@@+++   ",
"+++oooOOO@@@+++@@@@@@@@@+++ooo+++@@@+++@@@+++   ",
"+++oooOOO@@@+++@@@@@@@@@+++ooo+++@@@+++@@@+++   ",
"@@@ooo@@@@@@###+++@@@+++@@@ooo@@@+++###@@@###   ",
"@@@ooo@@@@@@###+++@@@+++@@@ooo@@@+++###@@@###   ",
"@@@ooo@@@@@@###+++@@@+++@@@ooo@@@+++###@@@###   ",
"+++ooo+++@@@@@@@@@@@@###+++OOO+++@@@OOO@@@+++   ",
"+++ooo+++@@@@@@@@@@@@###+++OOO+++@@@OOO@@@+++   ",
"+++ooo+++@@@@@@@@@@@@###+++OOO+++@@@OOO@@@+++   ",
"XXXXXXXXXXXXXXXXXXXXXXXXoooooooooXXXXXXXXXXXX   ",
"XXXXXXXXXXXXXXXXXXXXXXXXoooooooooXXXXXXXXXXXX   ",
"XXXXXXXXXXXXXXXXXXXXXXXXoooooooooXXXXXXXXXXXX   ",
"+++@@@+++@@@+++ooo+++$$$+++@@@OOO@@@+++ooo+++   ",
"+++@@@+++@@@+++ooo+++$$$+++@@@OOO@@@+++ooo+++   ",
"+++@@@+++@@@+++ooo+++$$$+++@@@OOO@@@+++ooo+++   ",
"$$$@@@###+++@@@ooo@@@+++@@@@@@@@@+++@@@ooo@@@   ",
"$$$@@@###+++@@@ooo@@@+++@@@@@@@@@+++@@@ooo@@@   ",
"$$$@@@###+++@@@ooo@@@+++@@@@@@@@@+++@@@ooo@@@   ",
"+++@@@+++###+++oooOOO@@@+++@@@+++@@@+++ooo+++   ",
"+++@@@+++###+++oooOOO@@@+++@@@+++@@@+++ooo+++   ",
"+++@@@+++###+++oooOOO@@@+++@@@+++@@@+++ooo+++   ",
"XXXXXXXXXXXXXXXXXXXXXXXXXXXXXXXXXXXXXXXXXXXXX   ",
"XXXXXXXXXXXXXXXXXXXXXXXXXXXXXXXXXXXXXXXXXXXXX   ",
"XXXXXXXXXXXXXXXXXXXXXXXXXXXXXXXXXXXXXXXXXXXXX   ",
"+++oooOOO$$$@@@@@@+++@@@OOOooo+++$$$+++OOO+++   ",
"+++oooOOO$$$@@@@@@+++@@@OOOooo+++$$$+++OOO+++   ",
"+++oooOOO$$$@@@@@@+++@@@OOOooo+++$$$+++OOO+++   ",
"@@@ooo###+++@@@+++###@@@@@@ooo@@@+++@@@+++@@@   ",
"@@@ooo###+++@@@+++###@@@@@@ooo@@@+++@@@+++@@@   ",
"@@@ooo###+++@@@+++###@@@@@@ooo@@@+++@@@+++@@@   ",
"+++ooo+++@@@@@@###+++@@@+++ooo+++@@@+++@@@+++   ",
"+++ooo+++@@@@@@###+++@@@+++ooo+++@@@+++@@@+++   ",
"+++ooo+++@@@@@@###+++@@@+++ooo+++@@@+++@@@+++   ",
".............................................   ",
".............................................   ",
".............................................   ",
"                                                ",
"                                                ",
"                                                "
};
