/* XPM */
static char *_5192b9daa0c4db7eca436ee4350e201OboI7DUSzIP4Q8dI[] = {
/* columns rows colors chars-per-pixel */
"48 48 9 1 ",
"  c #3A3A50",
". c #665A4F",
"X c #796C5F",
"o c #817767",
"O c #8B8173",
"+ c #9B8B7F",
"@ c #A89C8D",
"# c #A89D95",
"$ c #AEA697",
/* pixels */
"###+++###@@@###ooo@@@+++@@@+++@@@+++###ooo$$$+++",
"###+++###@@@###ooo@@@+++@@@+++@@@+++###ooo$$$+++",
"###+++###@@@###ooo@@@+++@@@+++@@@+++###ooo$$$+++",
"+++@@@+++###@@@oooOOO@@@+++@@@@@@###+++ooo+++@@@",
"+++@@@+++###@@@oooOOO@@@+++@@@@@@###+++ooo+++@@@",
"+++@@@+++###@@@oooOOO@@@+++@@@@@@###+++ooo+++@@@",
"XXXXXXXXXXXXXXXXXXXXXXXXXXXXXXXXXXXXXXXXXXXXXXXX",
"XXXXXXXXXXXXXXXXXXXXXXXXXXXXXXXXXXXXXXXXXXXXXXXX",
"XXXXXXXXXXXXXXXXXXXXXXXXXXXXXXXXXXXXXXXXXXXXXXXX",
"+++oooOOO@@@+++@@@@@@@@@+++ooo+++@@@+++@@@+++###",
"+++oooOOO@@@+++@@@@@@@@@+++ooo+++@@@+++@@@+++###",
"+++oooOOO@@@+++@@@@@@@@@+++ooo+++@@@+++@@@+++###",
"@@@ooo@@@@@@###+++@@@+++@@@ooo@@@+++###@@@###@@@",
"@@@ooo@@@@@@###+++@@@+++@@@ooo@@@+++###@@@###@@@",
"@@@ooo@@@@@@###+++@@@+++@@@ooo@@@+++###@@@###@@@",
"+++ooo+++@@@@@@@@@@@@###+++OOO+++@@@OOO@@@+++###",
"+++ooo+++@@@@@@@@@@@@###+++OOO+++@@@OOO@@@+++###",
"+++ooo+++@@@@@@@@@@@@###+++OOO+++@@@OOO@@@+++###",
"XXXXXXXXXXXXXXXXXXXXXXXXoooooooooXXXXXXXXXXXXXXX",
"XXXXXXXXXXXXXXXXXXXXXXXXoooooooooXXXXXXXXXXXXXXX",
"XXXXXXXXXXXXXXXXXXXXXXXXoooooooooXXXXXXXXXXXXXXX",
"+++@@@+++@@@+++ooo+++$$$+++@@@OOO@@@+++ooo+++OOO",
"+++@@@+++@@@+++ooo+++$$$+++@@@OOO@@@+++ooo+++OOO",
"+++@@@+++@@@+++ooo+++$$$+++@@@OOO@@@+++ooo+++OOO",
"$$$@@@###+++@@@ooo@@@+++@@@@@@@@@+++@@@ooo@@@+++",
"$$$@@@###+++@@@ooo@@@+++@@@@@@@@@+++@@@ooo@@@+++",
"$$$@@@###+++@@@ooo@@@+++@@@@@@@@@+++@@@ooo@@@+++",
"+++@@@+++###+++oooOOO@@@+++@@@+++@@@+++ooo+++@@@",
"+++@@@+++###+++oooOOO@@@+++@@@+++@@@+++ooo+++@@@",
"+++@@@+++###+++oooOOO@@@+++@@@+++@@@+++ooo+++@@@",
"XXXXXXXXXXXXXXXXXXXXXXXXXXXXXXXXXXXXXXXXXXXXXXXX",
"XXXXXXXXXXXXXXXXXXXXXXXXXXXXXXXXXXXXXXXXXXXXXXXX",
"XXXXXXXXXXXXXXXXXXXXXXXXXXXXXXXXXXXXXXXXXXXXXXXX",
"+++oooOOO$$$@@@@@@+++@@@OOOooo+++$$$+++OOO+++@@@",
"+++oooOOO$$$@@@@@@+++@@@OOOooo+++$$$+++OOO+++@@@",
"+++oooOOO$$$@@@@@@+++@@@OOOooo+++$$$+++OOO+++@@@",
"@@@ooo###+++@@@+++###@@@@@@ooo@@@+++@@@+++@@@+++",
"@@@ooo###+++@@@+++###@@@@@@ooo@@@+++@@@+++@@@+++",
"@@@ooo###+++@@@+++###@@@@@@ooo@@@+++@@@+++@@@+++",
"+++ooo+++@@@@@@###+++@@@+++ooo+++@@@+++@@@+++@@@",
"+++ooo+++@@@@@@###+++@@@+++ooo+++@@@+++@@@+++@@@",
"+++ooo+++@@@@@@###+++@@@+++ooo+++@@@+++@@@+++@@@",
"................................................",
"................................................",
"................................................",
"                                                ",
"                                                ",
"                                                "
};
