/* XPM */
static char *e5619fe6e7a04e8cb4078adc5f86154f8AEs35feG4WJKjTO[] = {
/* columns rows colors chars-per-pixel */
"48 48 8 1 ",
"  c #3A3A50",
". c #796C5F",
"X c #817767",
"o c #8B8173",
"O c #9B8B7F",
"+ c #A89C8D",
"@ c #A99D95",
"# c #AFA697",
/* pixels */
"@@@OOO@@@+++@@@XXX+++OOO+++OOO+++OOO@@@XXX###   ",
"@@@OOO@@@+++@@@XXX+++OOO+++OOO+++OOO@@@XXX###   ",
"@@@OOO@@@+++@@@XXX+++OOO+++OOO+++OOO@@@XXX###   ",
"OOO+++OOO@@@+++XXXooo+++OOO++++++@@@OOOXXXOOO   ",
"OOO+++OOO@@@+++XXXooo+++OOO++++++@@@OOOXXXOOO   ",
"OOO+++OOO@@@+++XXXooo+++OOO++++++@@@OOOXXXOOO   ",
".............................................   ",
".............................................   ",
".............................................   ",
"OOOXXXooo+++OOO+++++++++OOOXXXOOO+++OOO+++OOO   ",
"OOOXXXooo+++OOO+++++++++OOOXXXOOO+++OOO+++OOO   ",
"OOOXXXooo+++OOO+++++++++OOOXXXOOO+++OOO+++OOO   ",
"+++XXX++++++@@@OOO+++OOO+++XXX+++OOO@@@+++@@@   ",
"+++XXX++++++@@@OOO+++OOO+++XXX+++OOO@@@+++@@@   ",
"+++XXX++++++@@@OOO+++OOO+++XXX+++OOO@@@+++@@@   ",
"OOOXXXOOO++++++++++++@@@OOOoooOOO+++ooo+++OOO   ",
"OOOXXXOOO++++++++++++@@@OOOoooOOO+++ooo+++OOO   ",
"OOOXXXOOO++++++++++++@@@OOOoooOOO+++ooo+++OOO   ",
".............................................   ",
".............................................   ",
".............................................   ",
"OOO++++++@@@OOOXXXooo+++++++++OOO++++++XXXOOO   ",
"OOO++++++@@@OOOXXXooo+++++++++OOO++++++XXXOOO   ",
"OOO++++++@@@OOOXXXooo+++++++++OOO++++++XXXOOO   ",
"###OOO++++++@@@XXX+++++++++OOO@@@OOO+++XXX+++   ",
"###OOO++++++@@@XXX+++++++++OOO@@@OOO+++XXX+++   ",
"###OOO++++++@@@XXX+++++++++OOO@@@OOO+++XXX+++   ",
"OOOoooOOO+++OOOXXXOOO###OOO@@@OOO@@@OOOXXXOOO   ",
"OOOoooOOO+++OOOXXXOOO###OOO@@@OOO@@@OOOXXXOOO   ",
"OOOoooOOO+++OOOXXXOOO###OOO@@@OOO@@@OOOXXXOOO   ",
".............................................   ",
".............................................   ",
".............................................   ",
"OOOXXXOOOOOO+++@@@OOOoooOOOXXXOOO++++++@@@+++   ",
"OOOXXXOOOOOO+++@@@OOOoooOOOXXXOOO++++++@@@+++   ",
"OOOXXXOOOOOO+++@@@OOOoooOOOXXXOOO++++++@@@+++   ",
"@@@XXX+++###OOO+++@@@OOO@@@XXX+++OOO@@@+++@@@   ",
"@@@XXX+++###OOO+++@@@OOO@@@XXX+++OOO@@@+++@@@   ",
"@@@XXX+++###OOO+++@@@OOO@@@XXX+++OOO@@@+++@@@   ",
"OOOXXXOOO@@@+++OOO++++++OOOoooOOO@@@OOO@@@OOO   ",
"OOOXXXOOO@@@+++OOO++++++OOOoooOOO@@@OOO@@@OOO   ",
"OOOXXXOOO@@@+++OOO++++++OOOoooOOO@@@OOO@@@OOO   ",
"........................XXXXXXXXX............   ",
"........................XXXXXXXXX............   ",
"........................XXXXXXXXX............   ",
"OOO+++OOO@@@OOOXXX+++@@@OOO+++OOO+++oooXXXOOO   ",
"OOO+++OOO@@@OOOXXX+++@@@OOO+++OOO+++oooXXXOOO   ",
"OOO+++OOO@@@OOOXXX+++@@@OOO+++OOO+++oooXXXOOO   "
};
