/* XPM */
static char *_854b03412eb446ea4291302f474309828AuJz0Z5CpdYo84[] = {
/* columns rows colors chars-per-pixel */
"48 48 7 1 ",
"  c #796C5F",
". c #817767",
"X c #8B8173",
"o c #9B8B7F",
"O c #A89C8D",
"+ c #A99D95",
"@ c #AFA697",
/* pixels */
"+++ooo+++OOO+++...OOOoooOOOoooOOOooo+++...@@@ooo",
"+++ooo+++OOO+++...OOOoooOOOoooOOOooo+++...@@@ooo",
"+++ooo+++OOO+++...OOOoooOOOoooOOOooo+++...@@@ooo",
"oooOOOooo+++OOO...XXXOOOoooOOOOOO+++ooo...oooOOO",
"oooOOOooo+++OOO...XXXOOOoooOOOOOO+++ooo...oooOOO",
"oooOOOooo+++OOO...XXXOOOoooOOOOOO+++ooo...oooOOO",
"                                                ",
"                                                ",
"                                                ",
"ooo...XXXOOOoooOOOOOOOOOooo...oooOOOoooOOOooo+++",
"ooo...XXXOOOoooOOOOOOOOOooo...oooOOOoooOOOooo+++",
"ooo...XXXOOOoooOOOOOOOOOooo...oooOOOoooOOOooo+++",
"OOO...OOOOOO+++oooOOOoooOOO...OOOooo+++OOO+++OOO",
"OOO...OOOOOO+++oooOOOoooOOO...OOOooo+++OOO+++OOO",
"OOO...OOOOOO+++oooOOOoooOOO...OOOooo+++OOO+++OOO",
"ooo...oooOOOOOOOOOOOO+++oooXXXoooOOOXXXOOOooo+++",
"ooo...oooOOOOOOOOOOOO+++oooXXXoooOOOXXXOOOooo+++",
"ooo...oooOOOOOOOOOOOO+++oooXXXoooOOOXXXOOOooo+++",
"                                                ",
"                                                ",
"                                                ",
"oooOOOOOO+++ooo...XXXOOOOOOOOOoooOOOOOO...oooOOO",
"oooOOOOOO+++ooo...XXXOOOOOOOOOoooOOOOOO...oooOOO",
"oooOOOOOO+++ooo...XXXOOOOOOOOOoooOOOOOO...oooOOO",
"@@@oooOOOOOO+++...OOOOOOOOOooo+++oooOOO...OOOooo",
"@@@oooOOOOOO+++...OOOOOOOOOooo+++oooOOO...OOOooo",
"@@@oooOOOOOO+++...OOOOOOOOOooo+++oooOOO...OOOooo",
"oooXXXoooOOOooo...ooo@@@ooo+++ooo+++ooo...oooOOO",
"oooXXXoooOOOooo...ooo@@@ooo+++ooo+++ooo...oooOOO",
"oooXXXoooOOOooo...ooo@@@ooo+++ooo+++ooo...oooOOO",
"                                                ",
"                                                ",
"                                                ",
"ooo...ooooooOOO+++oooXXXooo...oooOOOOOO+++OOO+++",
"ooo...ooooooOOO+++oooXXXooo...oooOOOOOO+++OOO+++",
"ooo...ooooooOOO+++oooXXXooo...oooOOOOOO+++OOO+++",
"+++...OOO@@@oooOOO+++ooo+++...OOOooo+++OOO+++ooo",
"+++...OOO@@@oooOOO+++ooo+++...OOOooo+++OOO+++ooo",
"+++...OOO@@@oooOOO+++ooo+++...OOOooo+++OOO+++ooo",
"ooo...ooo+++OOOoooOOOOOOoooXXXooo+++ooo+++oooOOO",
"ooo...ooo+++OOOoooOOOOOOoooXXXooo+++ooo+++oooOOO",
"ooo...ooo+++OOOoooOOOOOOoooXXXooo+++ooo+++oooOOO",
"                        .........               ",
"                        .........               ",
"                        .........               ",
"oooOOOooo+++ooo...OOO+++oooOOOoooOOOXXX...oooOOO",
"oooOOOooo+++ooo...OOO+++oooOOOoooOOOXXX...oooOOO",
"oooOOOooo+++ooo...OOO+++oooOOOoooOOOXXX...oooOOO"
};
