/* XPM */
static char *_32c94abcab44288e803cc2bea5beadaGEEwsKAiOcNuzm20[] = {
/* columns rows colors chars-per-pixel */
"48 48 38 1 ",
"  c #3A3A50",
". c #3B3A50",
"X c #3A3B50",
"o c #3A3A51",
"O c #796C5E",
"+ c #786C5F",
"@ c #796C5F",
"# c #796D5F",
"$ c #5F5B64",
"% c #817766",
"& c #817667",
"* c #807767",
"= c #817767",
"- c #8B8172",
"; c #8B8073",
": c #8A8173",
"> c #8B8173",
", c #9B8B7E",
"< c #9B8A7F",
"1 c #9A8B7F",
"2 c #9B8B7F",
"3 c #747484",
"4 c #A89C8C",
"5 c #A89C8D",
"6 c #A99C8D",
"7 c #A89D8D",
"8 c #A89D94",
"9 c #A89C95",
"0 c #A89D95",
"q c #A99D95",
"w c #AEA696",
"e c #AEA697",
"r c #AFA697",
"t c #AEA797",
"y c #FDFDFC",
"u c #FDFCFD",
"i c #FCFDFD",
"p c #FDFDFD",
/* pixels */
"                                                ",
"                                                ",
"                                                ",
"   pppppppppppppppppppppppppppppppppppppppppp333",
"   pppppppppppppppppppppppppppppppppppppppppp   ",
"   pppppppppppppppppppppppppppppppppppppppppp   ",
"   pppppppppppppppppppppppppppppppppppppppppp   ",
"   pppppppppppppppppppppppppppppppppppppppppp   ",
"   pppppppppppppppppppppppppppppppppppppppppp   ",
"   pppppppppppppppppppppppppppppppppppppppppp   ",
"   pppppppppppppppppppppppppppppppppppppppppp   ",
"   pppppppppppppppppppppppppppppppppppppppppp   ",
"   pppppppppppppppppppppppppppppppppppppppppp   ",
"   pppppppppppppppppppppppppppppppppppppppppp   ",
"   pppppppppppppppppppppppppppppppppppppppppp   ",
"                                                ",
"                                                ",
"                                                ",
"   @@@@@@@@@@@@@@@@@@@@@@@@@@@@@@@@@@@@@@@@@@   ",
"   @@@@@@@@@@@@@@@@@@@@@@@@@@@@@@@@@@@@@@@@@@   ",
"   @@@@@@@@@@@@@@@@@@@@@@@@@@@@@@@@@@@@@@@@@@   ",
"   555555000222===:::555555555222555555===222   ",
"   555555000222===:::555555555222555555===222   ",
"   555555000222===:::555555555222555555===222   ",
"   222555555000===555555555222000222555===555   ",
"   222555555000===555555555222000222555===555   ",
"   222555555000===555555555222000222555===555   ",
"   :::222555222===222eee222000222000222===222   ",
"   :::222555222===222eee222000222000222===222   ",
"   :::222555222===222eee222000222000222===222   ",
"   @@@@@@@@@@@@@@@@@@@@@@@@@@@@@@@@@@@@@@@@@@   ",
"   @@@@@@@@@@@@@@@@@@@@@@@@@@@@@@@@@@@@@@@@@@   ",
"   @@@@@@@@@@@@@@@@@@@@@@@@@@@@@@@@@@@@@@@@@@   ",
"   ===222222555000222:::222===222555555000555   ",
"   ===222222555000222:::222===222555555000555   ",
"   ===222222555000222:::222===222555555000555   ",
"   ===555eee222555000222000===555222000555000   ",
"   ===555eee222555000222000===555222000555000   ",
"   ===555eee222555000222000===555222000555000   ",
"   ===222000555222555555222:::222000222000222   ",
"   ===222000555222555555222:::222000222000222   ",
"   ===222000555222555555222:::222000222000222   ",
"   @@@@@@@@@@@@@@@@@@@@@=========@@@@@@@@@@@@   ",
"   @@@@@@@@@@@@@@@@@@@@@=========@@@@@@@@@@@@   ",
"   @@@@@@@@@@@@@@@@@@@@@=========@@@@@@@@@@@@   ",
"   555222000222===555000222555222555:::===222   ",
"   555222000222===555000222555222555:::===222   ",
"   555222000222===555000222555222555:::===222$$$"
};
