/* XPM */
static char *d90b9467cb5b4855ca717e96692e76a2WhwpeeT6uox6FdnJ[] = {
/* columns rows colors chars-per-pixel */
"48 48 29 1 ",
"  c #3A3A50",
". c #796C5E",
"X c #786C5F",
"o c #796C5F",
"O c #796D5F",
"+ c #817766",
"@ c #817667",
"# c #807767",
"$ c #817767",
"% c #8B8172",
"& c #8B8073",
"* c #8A8173",
"= c #8B8173",
"- c #9B8B7E",
"; c #9B8A7F",
": c #9A8B7F",
"> c #9B8B7F",
", c #A89C8C",
"< c #A89C8D",
"1 c #A99C8D",
"2 c #A89D8D",
"3 c #A89D94",
"4 c #A89C95",
"5 c #A89D95",
"6 c #A99D95",
"7 c #AEA696",
"8 c #AEA697",
"9 c #AFA697",
"0 c #AEA797",
/* pixels */
"   >>>555<<<555$$$<<<>>><<<>>><<<>>>555$$$999   ",
"   >>>555<<<555$$$<<<>>><<<>>><<<>>>555$$$999   ",
"   >>>555<<<555$$$<<<>>><<<>>><<<>>>555$$$999   ",
"   <<<>>>555<<<$$$===<<<>>><<<<<<555>>>$$$>>>   ",
"   <<<>>>555<<<$$$===<<<>>><<<<<<555>>>$$$>>>   ",
"   <<<>>>555<<<$$$===<<<>>><<<<<<555>>>$$$>>>   ",
"   oooooooooooooooooooooooooooooooooooooooooo   ",
"   oooooooooooooooooooooooooooooooooooooooooo   ",
"   oooooooooooooooooooooooooooooooooooooooooo   ",
"   $$$===<<<>>><<<<<<<<<>>>$$$>>><<<>>><<<>>>   ",
"   $$$===<<<>>><<<<<<<<<>>>$$$>>><<<>>><<<>>>   ",
"   $$$===<<<>>><<<<<<<<<>>>$$$>>><<<>>><<<>>>   ",
"   $$$<<<<<<555>>><<<>>><<<$$$<<<>>>555<<<555   ",
"   $$$<<<<<<555>>><<<>>><<<$$$<<<>>>555<<<555   ",
"   $$$<<<<<<555>>><<<>>><<<$$$<<<>>>555<<<555   ",
"   $$$>>><<<<<<<<<<<<555>>>===>>><<<===<<<>>>   ",
"   $$$>>><<<<<<<<<<<<555>>>===>>><<<===<<<>>>   ",
"   $$$>>><<<<<<<<<<<<555>>>===>>><<<===<<<>>>   ",
"   oooooooooooooooooooooooooooooooooooooooooo   ",
"   oooooooooooooooooooooooooooooooooooooooooo   ",
"   oooooooooooooooooooooooooooooooooooooooooo   ",
"   <<<<<<555>>>$$$===<<<<<<<<<>>><<<<<<$$$>>>   ",
"   <<<<<<555>>>$$$===<<<<<<<<<>>><<<<<<$$$>>>   ",
"   <<<<<<555>>>$$$===<<<<<<<<<>>><<<<<<$$$>>>   ",
"   >>><<<<<<555$$$<<<<<<<<<>>>555>>><<<$$$<<<   ",
"   >>><<<<<<555$$$<<<<<<<<<>>>555>>><<<$$$<<<   ",
"   >>><<<<<<555$$$<<<<<<<<<>>>555>>><<<$$$<<<   ",
"   ===>>><<<>>>$$$>>>999>>>555>>>555>>>$$$>>>   ",
"   ===>>><<<>>>$$$>>>999>>>555>>>555>>>$$$>>>   ",
"   ===>>><<<>>>$$$>>>999>>>555>>>555>>>$$$>>>   ",
"   oooooooooooooooooooooooooooooooooooooooooo   ",
"   oooooooooooooooooooooooooooooooooooooooooo   ",
"   oooooooooooooooooooooooooooooooooooooooooo   ",
"   $$$>>>>>><<<555>>>===>>>$$$>>><<<<<<555<<<   ",
"   $$$>>>>>><<<555>>>===>>>$$$>>><<<<<<555<<<   ",
"   $$$>>>>>><<<555>>>===>>>$$$>>><<<<<<555<<<   ",
"   $$$<<<999>>><<<555>>>555$$$<<<>>>555<<<555   ",
"   $$$<<<999>>><<<555>>>555$$$<<<>>>555<<<555   ",
"   $$$<<<999>>><<<555>>>555$$$<<<>>>555<<<555   ",
"   $$$>>>555<<<>>><<<<<<>>>===>>>555>>>555>>>   ",
"   $$$>>>555<<<>>><<<<<<>>>===>>>555>>>555>>>   ",
"   $$$>>>555<<<>>><<<<<<>>>===>>>555>>>555>>>   ",
"   ooooooooooooooooooooo$$$$$$$$$oooooooooooo   ",
"   ooooooooooooooooooooo$$$$$$$$$oooooooooooo   ",
"   ooooooooooooooooooooo$$$$$$$$$oooooooooooo   ",
"   <<<>>>555>>>$$$<<<555>>><<<>>><<<===$$$>>>   ",
"   <<<>>>555>>>$$$<<<555>>><<<>>><<<===$$$>>>   ",
"   <<<>>>555>>>$$$<<<555>>><<<>>><<<===$$$>>>   "
};
