/* XPM */
static char *da1e780722624a028863f249437edad7M4f5MzhqNnm58Owt[] = {
/* columns rows colors chars-per-pixel */
"48 48 9 1 ",
"  c #3A3A50",
". c #796C5F",
"X c #817767",
"o c #8B8173",
"O c #9B8B7F",
"+ c #A99C8D",
"@ c #A89D95",
"# c #AEA697",
"$ c #FDFDFD",
/* pixels */
"                                                ",
"                                                ",
"                                                ",
"$$$$$$$$$$$$$$$$$$$$$$$$$$$$$$$$$$$$$$$$$$$$$   ",
"$$$$$$$$$$$$$$$$$$$$$$$$$$$$$$$$$$$$$$$$$$$$$   ",
"$$$$$$$$$$$$$$$$$$$$$$$$$$$$$$$$$$$$$$$$$$$$$   ",
"$$$$$$$$$$$$$$$$$$$$$$$$$$$$$$$$$$$$$$$$$$$$$   ",
"$$$$$$$$$$$$$$$$$$$$$$$$$$$$$$$$$$$$$$$$$$$$$   ",
"$$$$$$$$$$$$$$$$$$$$$$$$$$$$$$$$$$$$$$$$$$$$$   ",
"$$$$$$$$$$$$$$$$$$$$$$$$$$$$$$$$$$$$$$$$$$$$$   ",
"$$$$$$$$$$$$$$$$$$$$$$$$$$$$$$$$$$$$$$$$$$$$$   ",
"$$$$$$$$$$$$$$$$$$$$$$$$$$$$$$$$$$$$$$$$$$$$$   ",
"$$$$$$$$$$$$$$$$$$$$$$$$$$$$$$$$$$$$$$$$$$$$$   ",
"$$$$$$$$$$$$$$$$$$$$$$$$$$$$$$$$$$$$$$$$$$$$$   ",
"$$$$$$$$$$$$$$$$$$$$$$$$$$$$$$$$$$$$$$$$$$$$$   ",
"                                                ",
"                                                ",
"                                                ",
".............................................   ",
".............................................   ",
".............................................   ",
"OOO++++++@@@OOOXXXooo+++++++++OOO++++++XXXOOO   ",
"OOO++++++@@@OOOXXXooo+++++++++OOO++++++XXXOOO   ",
"OOO++++++@@@OOOXXXooo+++++++++OOO++++++XXXOOO   ",
"###OOO++++++@@@XXX+++++++++OOO@@@OOO+++XXX+++   ",
"###OOO++++++@@@XXX+++++++++OOO@@@OOO+++XXX+++   ",
"###OOO++++++@@@XXX+++++++++OOO@@@OOO+++XXX+++   ",
"OOOoooOOO+++OOOXXXOOO###OOO@@@OOO@@@OOOXXXOOO   ",
"OOOoooOOO+++OOOXXXOOO###OOO@@@OOO@@@OOOXXXOOO   ",
"OOOoooOOO+++OOOXXXOOO###OOO@@@OOO@@@OOOXXXOOO   ",
".............................................   ",
".............................................   ",
".............................................   ",
"OOOXXXOOOOOO+++@@@OOOoooOOOXXXOOO++++++@@@+++   ",
"OOOXXXOOOOOO+++@@@OOOoooOOOXXXOOO++++++@@@+++   ",
"OOOXXXOOOOOO+++@@@OOOoooOOOXXXOOO++++++@@@+++   ",
"@@@XXX+++###OOO+++@@@OOO@@@XXX+++OOO@@@+++@@@   ",
"@@@XXX+++###OOO+++@@@OOO@@@XXX+++OOO@@@+++@@@   ",
"@@@XXX+++###OOO+++@@@OOO@@@XXX+++OOO@@@+++@@@   ",
"OOOXXXOOO@@@+++OOO++++++OOOoooOOO@@@OOO@@@OOO   ",
"OOOXXXOOO@@@+++OOO++++++OOOoooOOO@@@OOO@@@OOO   ",
"OOOXXXOOO@@@+++OOO++++++OOOoooOOO@@@OOO@@@OOO   ",
"........................XXXXXXXXX............   ",
"........................XXXXXXXXX............   ",
"........................XXXXXXXXX............   ",
"OOO+++OOO@@@OOOXXX+++@@@OOO+++OOO+++oooXXXOOO   ",
"OOO+++OOO@@@OOOXXX+++@@@OOO+++OOO+++oooXXXOOO   ",
"OOO+++OOO@@@OOOXXX+++@@@OOO+++OOO+++oooXXXOOO   "
};
