/* XPM */
static char *_61162c75dce4e66f79ca86ce5e06d7fpLruc8bpu8s9Fxh4[] = {
/* columns rows colors chars-per-pixel */
"48 48 9 1 ",
"  c #3B3A50",
". c #786C5F",
"X c #817767",
"o c #8B8173",
"O c #9B8B7F",
"+ c #A99C8D",
"@ c #A89D95",
"# c #AFA697",
"$ c #FCFDFD",
/* pixels */
"                                                ",
"                                                ",
"                                                ",
"$$$$$$$$$$$$$$$$$$$$$$$$$$$$$$$$$$$$$$$$$$$$$$$$",
"$$$$$$$$$$$$$$$$$$$$$$$$$$$$$$$$$$$$$$$$$$$$$$$$",
"$$$$$$$$$$$$$$$$$$$$$$$$$$$$$$$$$$$$$$$$$$$$$$$$",
"$$$$$$$$$$$$$$$$$$$$$$$$$$$$$$$$$$$$$$$$$$$$$$$$",
"$$$$$$$$$$$$$$$$$$$$$$$$$$$$$$$$$$$$$$$$$$$$$$$$",
"$$$$$$$$$$$$$$$$$$$$$$$$$$$$$$$$$$$$$$$$$$$$$$$$",
"$$$$$$$$$$$$$$$$$$$$$$$$$$$$$$$$$$$$$$$$$$$$$$$$",
"$$$$$$$$$$$$$$$$$$$$$$$$$$$$$$$$$$$$$$$$$$$$$$$$",
"$$$$$$$$$$$$$$$$$$$$$$$$$$$$$$$$$$$$$$$$$$$$$$$$",
"$$$$$$$$$$$$$$$$$$$$$$$$$$$$$$$$$$$$$$$$$$$$$$$$",
"$$$$$$$$$$$$$$$$$$$$$$$$$$$$$$$$$$$$$$$$$$$$$$$$",
"$$$$$$$$$$$$$$$$$$$$$$$$$$$$$$$$$$$$$$$$$$$$$$$$",
"                                                ",
"                                                ",
"                                                ",
"................................................",
"................................................",
"................................................",
"OOO++++++@@@OOOXXXooo+++++++++OOO++++++XXXOOO+++",
"OOO++++++@@@OOOXXXooo+++++++++OOO++++++XXXOOO+++",
"OOO++++++@@@OOOXXXooo+++++++++OOO++++++XXXOOO+++",
"###OOO++++++@@@XXX+++++++++OOO@@@OOO+++XXX+++OOO",
"###OOO++++++@@@XXX+++++++++OOO@@@OOO+++XXX+++OOO",
"###OOO++++++@@@XXX+++++++++OOO@@@OOO+++XXX+++OOO",
"OOOoooOOO+++OOOXXXOOO###OOO@@@OOO@@@OOOXXXOOO+++",
"OOOoooOOO+++OOOXXXOOO###OOO@@@OOO@@@OOOXXXOOO+++",
"OOOoooOOO+++OOOXXXOOO###OOO@@@OOO@@@OOOXXXOOO+++",
"................................................",
"................................................",
"................................................",
"OOOXXXOOOOOO+++@@@OOOoooOOOXXXOOO++++++@@@+++@@@",
"OOOXXXOOOOOO+++@@@OOOoooOOOXXXOOO++++++@@@+++@@@",
"OOOXXXOOOOOO+++@@@OOOoooOOOXXXOOO++++++@@@+++@@@",
"@@@XXX+++###OOO+++@@@OOO@@@XXX+++OOO@@@+++@@@OOO",
"@@@XXX+++###OOO+++@@@OOO@@@XXX+++OOO@@@+++@@@OOO",
"@@@XXX+++###OOO+++@@@OOO@@@XXX+++OOO@@@+++@@@OOO",
"OOOXXXOOO@@@+++OOO++++++OOOoooOOO@@@OOO@@@OOO+++",
"OOOXXXOOO@@@+++OOO++++++OOOoooOOO@@@OOO@@@OOO+++",
"OOOXXXOOO@@@+++OOO++++++OOOoooOOO@@@OOO@@@OOO+++",
"........................XXXXXXXXX...............",
"........................XXXXXXXXX...............",
"........................XXXXXXXXX...............",
"OOO+++OOO@@@OOOXXX+++@@@OOO+++OOO+++oooXXXOOO+++",
"OOO+++OOO@@@OOOXXX+++@@@OOO+++OOO+++oooXXXOOO+++",
"OOO+++OOO@@@OOOXXX+++@@@OOO+++OOO+++oooXXXOOO+++"
};
