/* XPM */
static char *_wJd5DYaDyAW7aFzIypvfP8NPFe_output[] = {
/* columns rows colors chars-per-pixel */
"48 48 18 1 ",
"  c None",
". c #3A3A50",
"X c #46465E",
"o c #724A40",
"O c #464660",
"+ c #956020",
"@ c #C05F39",
"# c #805449",
"$ c #866150",
"% c #C9835B",
"& c #DC9B5A",
"* c #6C5981",
"= c #F69784",
"- c #F6AE9F",
"; c #E2B39B",
": c #DFD0BD",
"> c #FFCBB0",
", c #EBECD5",
/* pixels */
"                                                ",
"                                                ",
"                                                ",
"                                                ",
"                                                ",
"                XXXXXXXXXXXXXX                  ",
"                XXXXXXXXXXXXXX                  ",
"              XX####$$$$$$$$$$XX                ",
"              XX####$$$$$$$$$$XX                ",
"            XX######$$$$$$######XX              ",
"            XX######$$$$$$######XX              ",
"            XX################$$##XX            ",
"            XX################$$##XX            ",
"          XXoooo##################ooXX          ",
"          XXoooo##################ooXX          ",
"          ..oooo##################ooXX          ",
"          ..oooo##################ooXX          ",
"          ..oooooo################ooXX          ",
"          ..oooooo################ooXX          ",
"          ..oooooo################XX            ",
"          ..oooooo################XX            ",
"          ..oooooooo############ooXX            ",
"          ..oooooooo############ooXX            ",
"          ..oooooooo########$$oo;;XX            ",
"          ..oooooooo########$$oo;;XX            ",
"          ..oooo########$$oo;;**>>XX            ",
"          ..oooo########$$oo;;**>>XX            ",
"          ..oooooo$$oo;;>>>>>>++>>..            ",
"          ..oooooo$$oo;;>>>>>>++>>..            ",
"            ....---->>>>>>--====..              ",
"            ....---->>>>>>--====..              ",
"                ..........XXXXXX                ",
"                ..........XXXXXX                ",
"                ..%%..%%%%OO::..                ",
"                ..%%..%%%%OO::..                ",
"                ..%%..&&&&OO,,..                ",
"                ..%%..&&&&OO,,..                ",
"                ..%%XX>>>>XXOO..                ",
"                ..%%XX>>>>XXOO..                ",
"                ..%%XX-->>XX&&..                ",
"                ..%%XX-->>XX&&..                ",
"                  ....XXXX....                  ",
"                  ....XXXX....                  ",
"                  ..@@%%%%%%..                  ",
"                  ..@@%%%%%%..                  ",
"                  ..&&&&&&..                    ",
"                  ..&&&&&&..                    ",
"                    ......                      "
};
